<!DOCTYPE svg PUBLIC "-//W3C//DTD SVG 1.1//EN" "http://www.w3.org/Graphics/SVG/1.1/DTD/svg11.dtd" [
	<!ENTITY ns_flows "http://ns.adobe.com/Flows/1.0/">
]><svg xmlns="http://www.w3.org/2000/svg" xmlns:xlink="http://www.w3.org/1999/xlink" width="468" height="105" viewBox="5.462 1.365 468 105" enable-background="new 5.462 1.365 468 105"><text transform="translate(129.212 52.699)"><tspan x="0" y="0" fill="#fff" font-family="'Geometria-Light'" font-size="62">&gt;70</tspan><tspan x="121.828" y="0" fill="#fff" font-family="'Geometria-Light'" font-size="62">млн т</tspan></text><text transform="translate(129.212 76.699)"><tspan x="0" y="0" fill="#fff" font-family="'Geometria'" font-size="16">составляют извлекаемые запасы нефти</tspan><tspan x="0" y="20" fill="#fff" font-family="'Geometria'" font-size="16">на месторождении Приразломное</tspan></text><defs><path id="a" d="M18.212 158.7h96v96h-96z"/></defs><clipPath id="b"><use xlink:href="#a" overflow="visible"/></clipPath><path clip-path="url(#b)" stroke="#fff" stroke-width="2" stroke-miterlimit="10" fill="none" d="M49.212 210.7v39"/><g clip-path="url(#b)" stroke="#fff" stroke-width="2" stroke-miterlimit="10" fill="none"><path d="M30.212 182.7h71v11h-71zM101.212 193.7h-71M108.1 202.785l-6.892-9.086H30.414l-8.143 10.345M101.212 193.7h-71"/><path d="M41.212 162.7h25v20h-25zM66.212 169.7h29v13h-29zM58.212 125.753V113.7h-9v12.053l-2 16.337v20.61h12v-20.61zM49.212 118.7h9M49.212 122.7h9M49.212 127.7h9M49.212 132.7h10"/><path stroke-linejoin="round" d="M72.185 169.23l8-76.12 8 76.223M115.61 150.946L96.54 182.86M95 169.558l16.985-24.344"/><path d="M0 208.154c20.146 0 20.146-6.6 40.29-6.6 20.148 0 20.148 6.6 40.297 6.6s20.148-6.6 40.296-6.6"/><path stroke-linejoin="round" d="M111.985 145.214l12.04 16.053-4.835-18.032zM16.056 156.52l18.797 26.34M41.057 169.23L22.27 154.46M75.812 134.484l9.777 12.19-12.17 11.066 14.128 11.737"/></g><path clip-path="url(#b)" stroke="#fff" stroke-width="1.5" stroke-miterlimit="10" fill="none" d="M44.752 215.16l4.46-4.46 4.46 4.46M53.672 245.24l-4.46 4.46-4.46-4.46"/><path stroke="#fff" stroke-width="2" stroke-miterlimit="10" fill="none" d="M9.212 6.7h96v96h-96zM9.212 71.7h96M26.212 71.7v-40l15.892-4.154 1.524 4.35M23.212 41.7h8M23.212 53.7h8M23.212 65.7h8"/><path stroke="#fff" stroke-width="2" stroke-miterlimit="10" fill="none" d="M89.212 71.7h-58v-37l29-6.622 29 6.62zM44.212 38.7h45M44.212 60.7h45"/></svg>