<!DOCTYPE svg PUBLIC "-//W3C//DTD SVG 1.1//EN" "http://www.w3.org/Graphics/SVG/1.1/DTD/svg11.dtd" [
	<!ENTITY ns_flows "http://ns.adobe.com/Flows/1.0/">
]><svg xmlns="http://www.w3.org/2000/svg" width="468" height="105" viewBox="-11.75 -2.635 468 105" enable-background="new -11.75 -2.635 468 105"><text transform="translate(121 52.699)"><tspan x="0" y="0" fill="#fff" font-family="'Geometria-Light'" font-size="62">&gt;0,5</tspan><tspan x="138.257" y="0" fill="#fff" font-family="'Geometria-Light'" font-size="62">млн т</tspan></text><text transform="translate(121 76.699)" fill="#fff" font-family="'Geometria'" font-size="16">вес платформы</text><path stroke="#fff" stroke-width="2" stroke-miterlimit="10" fill="none" d="M1 2.7h96v96H1zM26 69.7h46v7H26zM72 76.7H26M78.034 84.096L72.03 76.7H26.094l-7.635 8.773M72 76.7H26"/><path stroke="#fff" stroke-width="2" stroke-miterlimit="10" fill="none" d="M33 56.7h16v13H33zM49 60.7h19v9H49zM44 32.49V24.7h-6v7.79l-1 10.6V56.7h8V43.09zM38 27.7h6M38 30.7h6M38 33.7h6M38 36.7h7"/><path stroke="#fff" stroke-width="2" stroke-linejoin="round" stroke-miterlimit="10" fill="none" d="M53.197 60.05l5.19-49.39 5.19 49.457M81.374 48.835L69 69.543M68 60.263l11.02-15.146"/><path stroke="#fff" stroke-width="2" stroke-miterlimit="10" d="M8.215 86.603c13.726 0 13.726-4.28 27.45-4.28 13.728 0 13.728 4.28 27.455 4.28 13.727 0 13.727-4.28 27.454-4.28" fill="none"/><path stroke="#fff" stroke-width="2" stroke-linejoin="round" stroke-miterlimit="10" fill="none" d="M79.02 45.117l7.813 10.415-3.137-11.7zM18.46 54.835l10.515 14.708M33 60.7l-12.188-9.583"/><path stroke="#fff" stroke-width="2" stroke-linejoin="round" stroke-miterlimit="10" fill="none" d="M20.812 51.117L13 61.532l3.137-11.7zM55.55 37.505l6.345 7.91L54 52.596l9.165 7.615"/></svg>