<!DOCTYPE svg PUBLIC "-//W3C//DTD SVG 1.1//EN" "http://www.w3.org/Graphics/SVG/1.1/DTD/svg11.dtd" [
	<!ENTITY ns_flows "http://ns.adobe.com/Flows/1.0/">
]><svg xmlns="http://www.w3.org/2000/svg" xmlns:xlink="http://www.w3.org/1999/xlink" width="468" height="105" viewBox="-1.02 -0.634 468 105" enable-background="new -1.02 -0.634 468 105"><text transform="translate(131.731 52.699)" font-family="'Geometria-Light'" font-size="62">141 м</text><text transform="translate(131.731 76.699)"><tspan x="0" y="0" font-family="'Geometria'" font-size="16">высота платформы сопоставима</tspan><tspan x="0" y="20" font-family="'Geometria'" font-size="16">с высотой современного небоскреба</tspan></text><defs><path id="a" d="M11.73 3.7h96v96h-96z"/></defs><clipPath id="b"><use xlink:href="#a" overflow="visible"/></clipPath><g clip-path="url(#b)"><g stroke="#000" stroke-width="2" stroke-miterlimit="10" fill="none"><path d="M83.897 13.366h30v74.5h-30zM113.897 87.866h-37.5M91.73 21.7v7M98.73 21.7v7M91.73 38.7v7M98.73 38.7v7M91.73 55.7v7M98.73 55.7v7M91.73 72.7v7M98.73 72.7v7"/></g><g stroke="#000" stroke-linejoin="round" fill="none"><path d="M27.73 13.2"/><path stroke-dasharray="1,1" d="M28.73 13.2h54"/><path d="M82.73 13.2h1"/></g><g stroke="#000" stroke-width="2" stroke-miterlimit="10" fill="none"><path d="M8.73 74.7h46v7h-46zM54.73 81.7h-46M59.23 87.532L54.76 81.7H8.825l-5.22 4M54.73 81.7h-46"/><path d="M15.73 61.7h16v13h-16zM31.73 65.7h19v9h-19zM26.73 37.49V29.7h-6v7.79l-1 10.6V61.7h8V48.09zM20.73 32.7h6M20.73 35.7h6M20.73 38.7h6M20.73 41.7h7"/><path stroke-linejoin="round" d="M35.928 65.05l5.19-49.39 5.19 49.457M64.104 53.836L51.73 74.544M50.73 65.264l11.022-15.147"/><path d="M0 91.604c10.708 0 10.708-4.28 21.415-4.28 10.708 0 10.708 4.28 21.417 4.28s10.71-4.28 21.418-4.28"/><path stroke-linejoin="round" d="M61.752 50.117l7.81 10.415-3.135-11.7zM38.28 42.506l6.345 7.91-7.896 7.18 9.166 7.615"/></g></g><path stroke="#000" stroke-width="2" stroke-miterlimit="10" fill="none" d="M10.73 4.7h96v96h-96z"/></svg>