<!DOCTYPE svg PUBLIC "-//W3C//DTD SVG 1.1//EN" "http://www.w3.org/Graphics/SVG/1.1/DTD/svg11.dtd" [
	<!ENTITY ns_flows "http://ns.adobe.com/Flows/1.0/">
]><svg xmlns="http://www.w3.org/2000/svg" xmlns:xlink="http://www.w3.org/1999/xlink" width="468" height="105" viewBox="-17.686 2.366 468 105" enable-background="new -17.686 2.366 468 105"><text transform="translate(108.647 52.699)" fill="#fff" font-family="'Geometria-Light'" font-size="62">200</text><text transform="translate(108.647 76.699)"><tspan x="0" y="0" fill="#fff" font-family="'Geometria'" font-size="16">нефтяников вахтовым методом трудятся</tspan><tspan x="0" y="20" fill="#fff" font-family="'Geometria'" font-size="16">круглый год на платформе</tspan></text><circle stroke="#fff" stroke-width="2" stroke-miterlimit="10" cx="36.646" cy="52.7" r="35.646" fill="none"/><ellipse stroke="#fff" stroke-width="2" stroke-miterlimit="10" cx="36.646" cy="52.7" rx="29.249" ry="29.559" fill="none"/><defs><path id="a" d="M66.396 52.7c0-16.324-12.75-29.56-29.75-29.56V52.7L57.36 73.81c5.418-5.364 9.036-12.84 9.036-21.11z"/></defs><clipPath id="b"><use xlink:href="#a" overflow="visible"/></clipPath><g clip-path="url(#b)" stroke="#fff" stroke-width="1.5" stroke-miterlimit="10" fill="none"><path d="M56.696 8.756L17.06 48.39M59.423 11.484L19.788 51.12M62.15 14.21L22.516 53.845M64.878 16.938L25.242 56.573M67.605 19.666L27.97 59.3M70.333 22.393L30.697 62.028M73.06 25.12L33.424 64.754M75.787 27.847L36.15 67.482M78.515 30.575L38.88 70.21M81.242 33.302L41.606 72.937M83.97 36.03L44.332 75.663M86.696 38.756L47.06 78.39"/></g><path stroke="#fff" stroke-width="2" stroke-miterlimit="10" fill="none" d="M35.646 30.7v22l11 11.093"/></svg>