<!DOCTYPE svg PUBLIC "-//W3C//DTD SVG 1.1//EN" "http://www.w3.org/Graphics/SVG/1.1/DTD/svg11.dtd" [
	<!ENTITY ns_flows "http://ns.adobe.com/Flows/1.0/">
]><svg xmlns="http://www.w3.org/2000/svg" xmlns:xlink="http://www.w3.org/1999/xlink" width="468" height="105" viewBox="5.462 60.256 468 105" enable-background="new 5.462 60.256 468 105"><text transform="translate(138.212 114.59)" font-family="'Geometria-Light'" font-size="62">≈20 м</text><text transform="translate(138.212 138.59)"><tspan x="0" y="0" font-family="'Geometria'" font-size="16">глубина моря в месте установки</tspan><tspan x="0" y="20" font-family="'Geometria'" font-size="16">платформы</tspan></text><defs><path id="a" d="M18.212 66.59h96v96h-96z"/></defs><clipPath id="b"><use xlink:href="#a" overflow="visible"/></clipPath><path clip-path="url(#b)" stroke="#000" stroke-width="2" stroke-miterlimit="10" fill="none" d="M49.212 118.59v39"/><g clip-path="url(#b)" stroke="#000" stroke-width="2" stroke-miterlimit="10" fill="none"><path d="M30.212 90.59h71v11h-71zM101.212 101.59h-71M108.1 110.676l-6.892-9.086H30.414l-8.143 10.347M101.212 101.59h-71"/><path d="M41.212 70.59h25v20h-25zM66.212 77.59h29v13h-29zM58.212 33.645V21.59h-9v12.055l-2 16.336v20.61h12V49.98zM49.212 26.59h9M49.212 30.59h9M49.212 35.59h9M49.212 40.59h10"/><path stroke-linejoin="round" d="M72.185 77.12l8-76.12 8 76.224M115.61 58.837L96.54 90.752M95 77.45l16.985-24.345"/><path d="M0 116.045c20.146 0 20.146-6.6 40.29-6.6 20.148 0 20.148 6.6 40.297 6.6s20.148-6.6 40.296-6.6"/><path stroke-linejoin="round" d="M111.985 53.105l12.04 16.053-4.835-18.032zM16.056 64.412l18.797 26.34M41.057 77.12L22.27 62.354M75.812 42.375l9.777 12.19-12.17 11.066L87.548 77.37"/></g><path clip-path="url(#b)" stroke="#000" stroke-width="1.5" stroke-miterlimit="10" fill="none" d="M44.752 123.05l4.46-4.46 4.46 4.46M53.672 153.13l-4.46 4.46-4.46-4.46"/><path stroke="#000" stroke-width="2" stroke-miterlimit="10" fill="none" d="M18.212 65.59h96v96h-96z"/><text transform="translate(58.212 143.59)" font-family="'Geometria-Bold'" font-size="14">≈20 м</text></svg>