<!DOCTYPE svg PUBLIC "-//W3C//DTD SVG 1.1//EN" "http://www.w3.org/Graphics/SVG/1.1/DTD/svg11.dtd" [
	<!ENTITY ns_flows "http://ns.adobe.com/Flows/1.0/">
]><svg xmlns="http://www.w3.org/2000/svg" xmlns:xlink="http://www.w3.org/1999/xlink" width="468" height="105" viewBox="-9.332 23.846 468 105" enable-background="new -9.332 23.846 468 105"><text transform="translate(121 44.08)"><tspan x="0" y="0" fill="#fff" font-family="'Geometria'" font-size="16">Платформа оборудована надежным</tspan><tspan x="0" y="20" fill="#fff" font-family="'Geometria'" font-size="16">нефтехранилищем с бетонными</tspan><tspan x="0" y="40" fill="#fff" font-family="'Geometria'" font-size="16">стенами толщиной 3 метра, покрытыми</tspan><tspan x="0" y="60" fill="#fff" font-family="'Geometria'" font-size="16">плакированной сталью</tspan></text><defs><path id="a" d="M1 29.18h96v96H1z"/></defs><clipPath id="b"><use xlink:href="#a" overflow="visible"/></clipPath><g clip-path="url(#b)" stroke="#fff" stroke-width="2" stroke-miterlimit="10" fill="none"><path d="M24 62.18h49v7H24zM73 69.18H24M9 125.18V90.012L24.747 69.18h47.917L88 90.012v35.168M73 69.18H24"/><path d="M32 49.18h16v13H32zM48 53.18h21v9H48zM43 23.77v-7.59h-6v7.59l-1 11.06v14.35h8V34.83zM37 19.18h6M37 22.18h6M37 25.18h6M37 28.18h7"/><path stroke-linejoin="round" d="M53.02 52.523L58.434 1l5.416 51.592M82.413 40.824L69.505 62.426M68.46 52.746l11.5-15.803"/><path d="M79.96 78.283c4.38-1.205 8.345-2.527 17.04-2.527M1.105 80.223c8.83 0 12.782-1.363 17.246-2.584"/><path stroke-linejoin="round" d="M79.96 36.943l8.148 10.868-3.272-12.205zM16.78 47.084l10.97 15.342M31.95 53.2l-12.715-9.997"/><path stroke-linejoin="round" d="M19.235 43.203l-8.15 10.865 3.273-12.205zM55.475 29.004l6.617 8.252-8.237 7.49 9.563 7.943"/></g><path clip-path="url(#b)" stroke="#fff" stroke-width="2" stroke-miterlimit="10" fill="none" d="M9 107.18h79M14 107.18V91.287L27.4 74.18H35v33M83 107.18V91.287L69.6 74.18H62v33"/><path clip-path="url(#b)" stroke="#fff" stroke-width="2" stroke-miterlimit="10" fill="none" d="M39.316 74.18h17.83v33h-17.83z"/><path stroke="#fff" stroke-width="2" stroke-miterlimit="10" fill="none" d="M1 29.18h96v96H1z"/></svg>