<svg xmlns="http://www.w3.org/2000/svg" xmlns:xlink="http://www.w3.org/1999/xlink" viewBox="0 0 200 200" enable-background="new 0 0 200 200"><circle fill="#9CD1F1" cx="100" cy="100" r="99"/><defs><circle id="a" cx="100" cy="100" r="90"/></defs><clipPath id="b"><use xlink:href="#a" overflow="visible"/></clipPath><g clip-path="url(#b)"><path fill="#fff" d="M63 75c-1.3-3.9 6.4-6.8 11.7-8.5 4.3-1.4 9.9.1 15.1-.7 4.7-.6 9.4-3.6 14.6-3.6 5.2 0 9.9 3 14.6 3.6 5.2.7 10.8-.7 15.1.7 5.2 1.7 13 4.6 11.7 8.5H63z"/><path fill="#F6871F" d="M68 81h73v84H68zM63 75h83v6H63z"/><path opacity=".4" d="M68 81h73v4H68z"/><defs><path id="c" d="M141 165h20v-36l-20-15z"/></defs><clipPath id="d"><use xlink:href="#c" overflow="visible"/></clipPath><path clip-path="url(#d)" fill="#F6871F" d="M139 112h24v65h-24z"/><path opacity=".4" clip-path="url(#d)" d="M141 111h3.8v54H141z"/><path opacity=".4" d="M109 92h24v76h-24z"/><path fill="#F6871F" d="M111 94h20v71h-20z"/><path opacity=".4" d="M76 92h24v24H76z"/><path fill="#FFD38E" d="M78 94h20v20H78z"/><path opacity=".4" d="M111 114h8v2h-8z"/><g opacity=".4" stroke="#000" stroke-width="2" stroke-miterlimit="10" fill="none"><path d="M47 118l12 12M47 130l12-12M47 106l12 12M47 118l12-12M47 94l12 12M47 106l12-12M47 82l12 12M47 94l12-12M47 70l12 12M47 82l12-12M47 130l12 12M47 142l12-12M47 142l12 12M47 154l12-12M59 154V70l-6-6-6 6v84M53 64V42M56 60h-6M56 54h-6M56 48h-6"/></g><defs><path id="e" d="M39 129h29v36H39z"/></defs><clipPath id="f"><use xlink:href="#e" overflow="visible"/></clipPath><path clip-path="url(#f)" fill="#F6871F" d="M33 112h37v65H33z"/><path opacity=".4" clip-path="url(#f)" d="M64.2 111H68v54h-3.8z"/><path fill="#fff" d="M189.2 141.8c-6.9-2.9-6.7-3.8-14.2-3.8-7.5 0-7.5 4-15 4s-7.5-4-15-4-7.5 4-15 4-7.5-4-15-4-7.5 4-15 4-7.5-4-15-4-7.5 4-15 4-7.5-4-15-4-7.5 4-15 4-7.5-4-15-4-7.3.9-14.2 3.8C7.9 143 8 143.1 8 146.3s4 3.2 4 6.3c0 3.2-4 3.2-4 6.3 0 3.2 4 3.2 4 6.3 0 3.2-4 3.2-4 6.3s4 3.2 4 6.3c0 3.2-4 3.2-4 6.3 0 3.2 4 3.2 4 6.3 0 3.2-4 3.2-4 6.3 0 3.2 4 3.2 4 6.3 0 3.2-4 3.2-4 6.3 0 3.2-.1 3.3 2.8 4.5 6.9 2.9 6.7 3.8 14.2 3.8 7.5 0 7.5-4 15-4s7.5 4 15 4 7.5-4 15-4 7.5 4 15 4 7.5-4 15-4 7.5 4 15 4 7.5-4 15-4 7.5 4 15 4 7.5-4 15-4 7.5 4 15 4 7.3-.9 14.2-3.8c2.9-1.2 2.8-1.3 2.8-4.5s-4-3.2-4-6.3c0-3.2 4-3.2 4-6.3 0-3.2-4-3.2-4-6.3 0-3.2 4-3.2 4-6.3s-4-3.2-4-6.3c0-3.2 4-3.2 4-6.3 0-3.2-4-3.2-4-6.3 0-3.2 4-3.2 4-6.3 0-3.2-4-3.2-4-6.3 0-3.2 3.3-2.8 4-5.9.5-2.5.1-3.6-2.8-4.9z"/><path stroke="#808285" stroke-width="2" stroke-miterlimit="10" fill="none" d="M104 59v13"/><path fill="#fff" d="M104 65c-9.9 0-18-8.1-18-18s8.1-18 18-18 18 8.1 18 18-8.1 18-18 18z"/><path fill="#939598" d="M104 30c9.4 0 17 7.6 17 17s-7.6 17-17 17-17-7.6-17-17 7.6-17 17-17m0-2c-10.5 0-19 8.5-19 19s8.5 19 19 19 19-8.5 19-19-8.5-19-19-19z"/><path stroke="#A7A9AC" stroke-width="2" stroke-miterlimit="10" fill="none" d="M113 56l-9-9-9 9"/><circle fill="#fff" stroke="#808285" stroke-width="2" stroke-miterlimit="10" cx="104" cy="47" r="3"/></g><circle fill="#9CD1F1" cx="340" cy="100" r="100"/><defs><circle id="g" cx="340" cy="100" r="90"/></defs><clipPath id="h"><use xlink:href="#g" overflow="visible"/></clipPath><g clip-path="url(#h)"><path fill="#fff" d="M297 75c-1.3-3.9 6.4-6.8 11.7-8.5 4.3-1.4 9.9.1 15.1-.7 4.7-.6 9.4-3.6 14.6-3.6 5.2 0 9.9 3 14.6 3.6 5.2.7 10.8-.7 15.1.7 5.2 1.7 13 4.6 11.7 8.5H297z"/><path fill="#8A8C8E" d="M302 81h73v84h-73zM297 75h83v6h-83z"/><path opacity=".5" d="M302 81h73v4h-73zM343 92h24v76h-24z"/><path fill="#8A8C8E" d="M345 94h20v71h-20z"/><path opacity=".5" d="M310 92h24v24h-24z"/><path fill="#FFD38E" d="M312 94h20v20h-20z"/><path fill="#fff" d="M429.4 141.9c-7.1-2.4-6.9-3.9-14.4-3.9s-7.5 4-15 4-7.5-4-15-4-7.5 4-15 4-7.5-4-15-4-7.5 4-15 4-7.5-4-15-4-7.5 4-15 4-7.5-4-15-4-7.5 4-15 4-7.5-4-15-4-7.3 1.5-14.4 3.9c-2.4.8-2.6.6-2.6 3.1s4 2.5 4 5-4 2.5-4 5 4 2.5 4 5-4 2.5-4 5 4 2.5 4 5-4 2.5-4 5 4 2.5 4 5-4 2.5-4 5 4 2.5 4 5-4 2.5-4 5 .3 2.3 2.6 3.1c7.1 2.4 6.9 3.9 14.4 3.9s7.5-4 15-4 7.5 4 15 4 7.5-4 15-4 7.5 4 15 4 7.5-4 15-4 7.5 4 15 4 7.5-4 15-4 7.5 4 15 4 7.5-4 15-4 7.5 4 15 4 7.3-1.5 14.4-3.9c2.4-.8 2.6-.6 2.6-3.1s-4-2.5-4-5 4-2.5 4-5-4-2.5-4-5 4-2.5 4-5-4-2.5-4-5 4-2.5 4-5-4-2.5-4-5 4-2.5 4-5-4-2.5-4-5 3.4-2.1 3.9-4.5c.5-1.9-.2-2.8-2.5-3.6z"/><path opacity=".5" d="M345 114h8v2h-8z"/><path fill="#808285" d="M354 31h2v40h-2z"/></g><defs><path id="i" d="M354 31l-36 5.4c-2.3.3-4 2.3-4 4.6s1.7 4.2 4 4.6l36 5.4V31z"/></defs><clipPath id="j"><use xlink:href="#i" overflow="visible"/></clipPath><g clip-path="url(#j)"><path fill="#F6871F" d="M349 30h6v22h-6z"/><path fill="#fff" d="M344 30h5v22h-5z"/><path fill="#F6871F" d="M339 30h5v22h-5z"/><path fill="#fff" d="M334 30h5v22h-5z"/><path fill="#F6871F" d="M329 30h5v22h-5z"/><path fill="#fff" d="M324 30h5v22h-5z"/><path fill="#F6871F" d="M319 30h5v22h-5z"/><path fill="#fff" d="M313 30h6v22h-6z"/></g><circle fill="#9CD1F1" cx="580" cy="100" r="100"/><defs><circle id="k" cx="580" cy="100" r="90"/></defs><clipPath id="l"><use xlink:href="#k" overflow="visible"/></clipPath><g clip-path="url(#l)"><defs><path id="m" d="M630 160H530v-55.6c0-9.1 4.1-17.7 11.3-23.4l26.2-21h25l26.2 21c7.1 5.7 11.3 14.3 11.3 23.4V160z"/></defs><clipPath id="n"><use xlink:href="#m" overflow="visible"/></clipPath><g clip-path="url(#n)"><path fill="#F6871F" d="M520 50h120v99H520z"/><path opacity=".4" d="M520 94h120v4H520zM552 98h2v51h-2zM618 98h2v51h-2zM606 98h2v51h-2zM540 98h2v51h-2z"/></g></g><path opacity=".4" clip-path="url(#l)" d="M564 110h32v42.7h-32z"/><path clip-path="url(#l)" fill="#8A8C8E" d="M566 110h28v39.7h-28z"/><path opacity=".4" clip-path="url(#l)" d="M566 124h28v2h-28zM560 106h40v4h-40zM579 110h2v14h-2zM579 126h2v22h-2z"/><path fill="#fff" d="M669.4 141.9c-7.1-2.4-6.9-3.9-14.4-3.9s-7.5 4-15 4-7.5-4-15-4-7.5 4-15 4-7.5-4-15-4-7.5 4-15 4-7.5-4-15-4-7.5 4-15 4-7.5-4-15-4-7.5 4-15 4-7.5-4-15-4-7.3 1.5-14.4 3.9c-2.4.8-2.6.6-2.6 3.1s4 2.5 4 5-4 2.5-4 5 4 2.5 4 5-4 2.5-4 5 4 2.5 4 5-4 2.5-4 5 4 2.5 4 5-4 2.5-4 5 4 2.5 4 5-4 2.5-4 5 .3 2.3 2.6 3.1c7.1 2.4 6.9 3.9 14.4 3.9s7.5-4 15-4 7.5 4 15 4 7.5-4 15-4 7.5 4 15 4 7.5-4 15-4 7.5 4 15 4 7.5-4 15-4 7.5 4 15 4 7.5-4 15-4 7.5 4 15 4 7.3-1.5 14.4-3.9c2.4-.8 2.6-.6 2.6-3.1s-4-2.5-4-5 4-2.5 4-5-4-2.5-4-5 4-2.5 4-5-4-2.5-4-5 4-2.5 4-5-4-2.5-4-5 4-2.5 4-5-4-2.5-4-5 3.4-2.1 3.9-4.5c.5-1.9-.2-2.8-2.5-3.6z" clip-path="url(#l)"/><path clip-path="url(#l)" fill="#808285" d="M578 50h4v30h-4z"/><path clip-path="url(#l)" fill="#fff" d="M609.8 70l-15.4-12.3c-1.1-.9-2.2-1.6-3.4-2.2-1.7-.9-3.7-.7-5.3.4-1.6 1.1-3.6 1.8-5.7 1.8s-4.1-.7-5.7-1.8c-1.6-1.1-3.6-1.3-5.3-.4-1.2.6-2.3 1.4-3.4 2.2L549 71c-3.7 3-6.8 6.7-9 11h80c-2.6-4.6-6.1-8.7-10.2-12z"/><path opacity=".4" clip-path="url(#l)" fill="#808285" d="M580 27c-7 0-14 2.4-14 7 0 2.8 2.2 5 5 5 0 2.8 2.2 5 5 5 .4 0 .8-.1 1.2-.2-.2.4-.2.8-.2 1.2 0 1.7 1.3 3 3 3s3-1.3 3-3c0-.4-.1-.8-.2-1.2.4.1.8.2 1.2.2 2.8 0 5-2.2 5-5 2.8 0 5-2.2 5-5 0-4.6-7-7-14-7zm0 15z"/><circle fill="#9CD1F1" cx="820" cy="100" r="100"/><defs><circle id="o" cx="820" cy="100" r="90"/></defs><clipPath id="p"><use xlink:href="#o" overflow="visible"/></clipPath><path clip-path="url(#p)" stroke="#808285" stroke-width="2" stroke-miterlimit="10" fill="none" d="M879 130v20M761 130v20"/><path fill="#fff" d="M789.4 101.9c0-4.8 3.2-11.8 4.5-17.4 1.2-5.2-.9-11.7 1.3-16.5 2.4-5.2 8.5-7.6 12-11.1 4-4 7.4-9.9 12.8-9.9s8.8 5.9 12.8 9.9c3.5 3.5 9.7 5.9 12 11.1 2.2 4.8.1 11.3 1.3 16.5 1.3 5.6 4.5 12.6 4.5 17.4-7.1 2.3-8.1-3.9-15.6-3.9s-7.5 4-15 4-8-5.3-15.4-4c-7.9 1.4-8.1 6.2-15.2 3.9z" clip-path="url(#p)"/><g clip-path="url(#p)"><path fill="#F6871F" d="M820 30v10h20l-5-5 5-5z"/><path stroke="#808285" stroke-width="2" stroke-miterlimit="10" fill="none" d="M820 30v24"/></g><path clip-path="url(#p)" fill="#8A8C8E" d="M770 130l50-70 50 70-10-6v32h-80v-32z"/><path clip-path="url(#p)" stroke="#8A8C8E" stroke-width="2" stroke-miterlimit="10" fill="none" d="M890 158l-70-98-70 98"/><path opacity=".4" clip-path="url(#p)" d="M797.3 152l21.2-74.2c.4-1.5 2.5-1.5 2.9 0l21.2 74.2h-45.3z"/><path clip-path="url(#p)" fill="#FFD38E" d="M820 80l-20 70h40z"/><path opacity=".4" clip-path="url(#p)" d="M860 124v23h-4v-26zM780 124v23h4v-26z"/><path fill="#fff" d="M909.4 141.9c-7.1-2.4-6.9-3.9-14.4-3.9s-7.5 4-15 4-7.5-4-15-4-7.5 4-15 4-7.5-4-15-4-7.5 4-15 4-7.5-4-15-4-7.5 4-15 4-7.5-4-15-4-7.5 4-15 4-7.5-4-15-4-7.3 1.5-14.4 3.9c-2.4.8-2.6.6-2.6 3.1s4 2.5 4 5-4 2.5-4 5 4 2.5 4 5-4 2.5-4 5 4 2.5 4 5-4 2.5-4 5 4 2.5 4 5-4 2.5-4 5 4 2.5 4 5-4 2.5-4 5 .3 2.3 2.6 3.1c7.1 2.4 6.9 3.9 14.4 3.9s7.5-4 15-4 7.5 4 15 4 7.5-4 15-4 7.5 4 15 4 7.5-4 15-4 7.5 4 15 4 7.5-4 15-4 7.5 4 15 4 7.5-4 15-4 7.5 4 15 4 7.3-1.5 14.4-3.9c2.4-.8 2.6-.6 2.6-3.1s-4-2.5-4-5 4-2.5 4-5-4-2.5-4-5 4-2.5 4-5-4-2.5-4-5 4-2.5 4-5-4-2.5-4-5 4-2.5 4-5-4-2.5-4-5 3.4-2.1 3.9-4.5c.5-1.9-.2-2.8-2.5-3.6z" clip-path="url(#p)"/><circle fill="#9CD1F1" cx="1060" cy="100" r="100"/><defs><circle id="q" cx="1060" cy="100" r="90"/></defs><clipPath id="r"><use xlink:href="#q" overflow="visible"/></clipPath><g clip-path="url(#r)"><path fill="#808285" d="M1005.3 148.2l47.3-114.6 3.4 1.3-41.3 116.9zM1049.5 81.2l-14.8 9.3-2.2-4.4 16.2-6.5zM1011.7 80.6l16.9 27.3-6.2 3.3-13.3-29.2zM1005.6 91.9l12.4 1-.7 4-12-3.1z"/></g><path clip-path="url(#r)" fill="#fff" d="M1060 65.3l40.5 72.2 17.5-6.5-29.7-50.7-18-25.6-5.3-6.5-5.6-10.3-5.2-4.1zM1122.2 151.1c4-8 7.1-17.4 3.5-27.9-2.8-8.3-11.1-15.3-16.7-23.9-5.2-7.9-8-18.2-14.1-25.5-6.6-7.9-16.3-12.6-22.3-18.9-11.7-12.2-7.1-13.4-17.9-23.1"/><path clip-path="url(#r)" fill="#F6871F" d="M1055.4 30.5c8.7 27.8 29.7 78.5 74.6 119.5h-70l-8.5-118.7c-.1-2.4 3.2-3 3.9-.8z"/><path fill="#fff" d="M1149.4 141.9c-7.1-2.4-6.9-3.9-14.4-3.9s-7.5 4-15 4-7.5-4-15-4-7.5 4-15 4-7.5-4-15-4-7.5 4-15 4-7.5-4-15-4-7.5 4-15 4-7.5-4-15-4-7.5 4-15 4-7.5-4-15-4-7.3 1.5-14.4 3.9c-2.4.8-2.6.6-2.6 3.1s4 2.5 4 5-4 2.5-4 5 4 2.5 4 5-4 2.5-4 5 4 2.5 4 5-4 2.5-4 5 4 2.5 4 5-4 2.5-4 5 4 2.5 4 5-4 2.5-4 5 .3 2.3 2.6 3.1c7.1 2.4 6.9 3.9 14.4 3.9s7.5-4 15-4 7.5 4 15 4 7.5-4 15-4 7.5 4 15 4 7.5-4 15-4 7.5 4 15 4 7.5-4 15-4 7.5 4 15 4 7.5-4 15-4 7.5 4 15 4 7.3-1.5 14.4-3.9c2.4-.8 2.6-.6 2.6-3.1s-4-2.5-4-5 4-2.5 4-5-4-2.5-4-5 4-2.5 4-5-4-2.5-4-5 4-2.5 4-5-4-2.5-4-5 4-2.5 4-5-4-2.5-4-5 3.4-2.1 3.9-4.5c.5-1.9-.2-2.8-2.5-3.6z" clip-path="url(#r)"/></svg>