<!DOCTYPE svg PUBLIC "-//W3C//DTD SVG 1.1//EN" "http://www.w3.org/Graphics/SVG/1.1/DTD/svg11.dtd" [
	<!ENTITY ns_flows "http://ns.adobe.com/Flows/1.0/">
]><svg xmlns="http://www.w3.org/2000/svg" xmlns:xlink="http://www.w3.org/1999/xlink" width="393" height="345" viewBox="13.726 0 393 345" enable-background="new 13.726 0 393 345"><text transform="translate(16.625 242.415)" fill="#fff" font-family="'Geometria-Light'" font-size="62">141 м</text><text transform="translate(16.625 274.415)"><tspan x="0" y="0" fill="#fff" font-family="'Geometria'" font-size="24">высота платформы</tspan><tspan x="0" y="32" fill="#fff" font-family="'Geometria'" font-size="24">сопоставима с высотой</tspan><tspan x="0" y="64" fill="#fff" font-family="'Geometria'" font-size="24">современного небоскреба</tspan></text><defs><path id="a" d="M19.823 3.104h162.24v162.24H19.823z"/></defs><clipPath id="b"><use xlink:href="#a" overflow="visible"/></clipPath><g clip-path="url(#b)"><g stroke="#fff" stroke-width="2" stroke-miterlimit="10" fill="none"><path d="M141.785 19.44h50.7v125.906h-50.7zM192.485 145.346H129.11M155.023 33.524v11.83M166.854 33.524v11.83M155.023 62.254v11.83M166.854 62.254v11.83M155.023 90.984v11.83M166.854 90.984v11.83M155.023 119.714v11.83M166.854 119.714v11.83"/></g><g stroke="#fff" stroke-linejoin="round" fill="none"><path d="M46.863 19.16h.5"/><path stroke-dasharray="1.0069,1.0069" d="M48.37 19.16h92.13"/><path d="M141.004 19.16h.5"/></g><g stroke="#fff" stroke-width="2" stroke-miterlimit="10" fill="none"><path d="M14.754 123.094h77.74v11.83h-77.74zM92.493 134.924h-77.74M100.1 144.783l-7.558-9.86H14.914l-8.82 6.76M92.493 134.924h-77.74"/><path d="M26.583 101.125h27.04v21.97h-27.04zM53.623 107.884h32.11v15.21h-32.11zM45.174 60.21V47.045h-10.14V60.21l-1.69 17.915v23h13.52v-23zM35.033 52.114h10.14M35.033 57.184h10.14M35.033 62.254h10.14M35.033 67.324h11.83"/><path stroke-linejoin="round" d="M60.717 106.79l8.77-83.47 8.774 83.58M108.335 87.835l-20.91 34.997M85.733 107.148L104.36 81.55"/><path d="M0 151.663c18.095 0 18.095-7.236 36.19-7.236 18.098 0 18.098 7.236 36.195 7.236s18.097-7.236 36.195-7.236"/><path stroke-linejoin="round" d="M104.36 81.55l13.202 17.603-5.3-19.774zM64.693 68.687l10.722 13.37L62.07 94.188l15.493 12.87"/></g></g><path stroke="#fff" stroke-width="2" stroke-miterlimit="10" fill="none" d="M18.134 4.794h162.24v162.24H18.133z"/></svg>