<!DOCTYPE svg PUBLIC "-//W3C//DTD SVG 1.1//EN" "http://www.w3.org/Graphics/SVG/1.1/DTD/svg11.dtd" [
	<!ENTITY ns_flows "http://ns.adobe.com/Flows/1.0/">
]><svg xmlns="http://www.w3.org/2000/svg" xmlns:xlink="http://www.w3.org/1999/xlink" width="393" height="345" viewBox="0 44.829 393 345" enable-background="new 0 44.829 393 345"><text transform="translate(3.725 255.636)"><tspan x="0" y="0" fill="#fff" font-family="'Geometria'" font-size="24">Платформа оборудована</tspan><tspan x="0" y="32" fill="#fff" font-family="'Geometria'" font-size="24">надежным нефтехранилищем</tspan><tspan x="0" y="64" fill="#fff" font-family="'Geometria'" font-size="24">с бетонными стенами толщиной</tspan><tspan x="0" y="96" fill="#fff" font-family="'Geometria'" font-size="24">3 метра, покрытыми</tspan><tspan x="0" y="128" fill="#fff" font-family="'Geometria'" font-size="24">плакированной сталью</tspan></text><defs><path id="a" d="M4.5 48.623h162.238v162.24H4.498z"/></defs><clipPath id="b"><use xlink:href="#a" overflow="visible"/></clipPath><g clip-path="url(#b)" stroke="#fff" stroke-width="2" stroke-miterlimit="10" fill="none"><path d="M43.37 104.394h82.81v11.83H43.37zM126.18 116.224H43.37M18.02 210.863V151.43l26.61-35.206h80.98l25.92 35.205v59.433M126.18 116.224H43.37"/><path d="M56.89 82.423h27.04v21.97H56.89zM83.93 89.184h35.49v15.21H83.93zM75.48 39.485V26.653H65.34v12.832l-1.692 18.69v24.248h13.52v-24.25zM65.34 31.724h10.14M65.34 36.793h10.14M65.34 41.863h10.14M65.34 46.934h11.83"/><path stroke-linejoin="round" d="M92.41 88.074L101.564 1l9.15 87.19M142.087 68.303L120.27 104.81M118.51 88.45l19.43-26.704"/><path d="M137.94 131.61c7.403-2.038 14.103-4.272 28.798-4.272M4.677 134.887c14.925 0 21.602-2.305 29.147-4.368"/><path stroke-linejoin="round" d="M137.94 61.746l13.772 18.362-5.53-20.626zM31.17 78.88l18.538 25.93M56.805 89.218l-21.49-16.894"/><path stroke-linejoin="round" d="M35.316 72.324l-13.77 18.363 5.528-20.627zM96.56 48.328l11.184 13.946-13.92 12.657 16.16 13.426"/></g><path clip-path="url(#b)" stroke="#fff" stroke-width="2" stroke-miterlimit="10" fill="none" d="M18.02 180.443h133.51M26.47 180.443v-26.856l22.647-28.914H61.96v55.77M143.078 180.443v-26.856l-22.648-28.914h-12.84v55.77"/><path clip-path="url(#b)" stroke="#fff" stroke-width="2" stroke-miterlimit="10" fill="none" d="M69.253 124.673h30.134v55.77H69.253z"/><path stroke="#fff" stroke-width="2" stroke-miterlimit="10" fill="none" d="M4.5 48.623h162.238v162.24H4.498z"/></svg>