<!DOCTYPE svg PUBLIC "-//W3C//DTD SVG 1.1//EN" "http://www.w3.org/Graphics/SVG/1.1/DTD/svg11.dtd" [
	<!ENTITY ns_flows "http://ns.adobe.com/Flows/1.0/">
]><svg xmlns="http://www.w3.org/2000/svg" xmlns:xlink="http://www.w3.org/1999/xlink" width="393" height="345"><text transform="translate(4.157 243.346)" fill="#fff" font-family="'Geometria-Light'" font-size="62">300</text><text transform="translate(4.157 275.346)"><tspan x="0" y="0" fill="#fff" font-family="'Geometria'" font-size="24">нефтяников вахтовым методом</tspan><tspan x="0" y="32" fill="#fff" font-family="'Geometria'" font-size="24">трудятся круглый год</tspan><tspan x="0" y="64" fill="#fff" font-family="'Geometria'" font-size="24">на платформе</tspan></text><path stroke="#fff" stroke-width="2" stroke-miterlimit="10" fill="none" d="M4.457 4.034h162.24v162.24H4.457z"/><circle stroke="#fff" stroke-width="2" stroke-miterlimit="10" cx="85.577" cy="85.154" r="60.243" fill="none"/><ellipse stroke="#fff" stroke-width="2" stroke-miterlimit="10" cx="85.577" cy="85.154" rx="49.43" ry="49.953" fill="none"/><defs><path id="a" d="M135.853 85.154c0-27.588-21.546-49.953-50.275-49.953v49.954l35.004 35.68c9.158-9.066 15.27-21.7 15.27-35.68z"/></defs><clipPath id="b"><use xlink:href="#a" overflow="visible"/></clipPath><g clip-path="url(#b)" stroke="#fff" stroke-width="1.5" stroke-miterlimit="10" fill="none"><path d="M119.46 10.89L52.478 77.872M124.07 15.497L57.086 82.48M128.68 20.106L61.693 87.09M133.288 24.716L66.304 91.7M137.897 29.325L70.913 96.31M142.507 33.935L75.522 100.92M147.115 38.544L80.13 105.528M151.725 43.152L84.74 110.137M156.334 47.762L89.35 114.746M160.943 52.37L93.96 119.354M165.552 56.98l-66.985 66.984M170.16 61.59l-66.983 66.983"/></g><path stroke="#fff" stroke-width="2" stroke-miterlimit="10" fill="none" d="M83.887 47.975v37.18l18.59 18.75"/></svg>