<!DOCTYPE svg PUBLIC "-//W3C//DTD SVG 1.1//EN" "http://www.w3.org/Graphics/SVG/1.1/DTD/svg11.dtd" [
	<!ENTITY ns_flows "http://ns.adobe.com/Flows/1.0/">
]><svg xmlns="http://www.w3.org/2000/svg" width="393" height="345"><text transform="translate(3.492 272.927)"><tspan x="0" y="0" fill="#fff" font-family="'Geometria-Light'" font-size="62">&gt;0,5</tspan><tspan x="138.257" y="0" fill="#fff" font-family="'Geometria-Light'" font-size="62">млн т</tspan></text><text transform="translate(3.492 304.927)" fill="#fff" font-family="'Geometria'" font-size="24">вес платформы</text><path stroke="#fff" stroke-width="2" stroke-miterlimit="10" fill="none" d="M4.267 33.615h162.24v162.24H4.267zM46.517 146.845h77.74v11.83h-77.74zM124.256 158.675h-77.74M134.454 171.176l-10.15-12.5H46.678l-12.905 14.828M124.256 158.675h-77.74"/><path stroke="#fff" stroke-width="2" stroke-miterlimit="10" fill="none" d="M58.347 124.875h27.04v21.97h-27.04zM85.387 131.635h32.11v15.21h-32.11zM76.937 83.96V70.796h-10.14V83.96l-1.69 17.916v23h13.52v-23zM66.796 75.865h10.14M66.796 80.935h10.14M66.796 86.004h10.14M66.796 91.075h11.83"/><path stroke="#fff" stroke-width="2" stroke-linejoin="round" stroke-miterlimit="10" fill="none" d="M92.48 130.54l8.772-83.47 8.77 83.58M140.098 111.586l-20.91 34.997M117.496 130.9l18.627-25.6"/><path stroke="#fff" stroke-width="2" stroke-miterlimit="10" d="M16.46 175.414c23.195 0 23.195-7.237 46.39-7.237 23.2 0 23.2 7.237 46.4 7.237 23.197 0 23.197-7.237 46.397-7.237" fill="none"/><path stroke="#fff" stroke-width="2" stroke-linejoin="round" stroke-miterlimit="10" fill="none" d="M136.123 105.3l13.202 17.603-5.302-19.773zM33.772 121.726l17.772 24.857M58.347 131.635l-20.6-16.194"/><path stroke="#fff" stroke-width="2" stroke-linejoin="round" stroke-miterlimit="10" fill="none" d="M37.748 115.44l-13.202 17.603 5.302-19.773zM96.456 92.438l10.722 13.37-13.344 12.132 15.492 12.87"/></svg>