<!DOCTYPE svg PUBLIC "-//W3C//DTD SVG 1.1//EN" "http://www.w3.org/Graphics/SVG/1.1/DTD/svg11.dtd" [
	<!ENTITY ns_flows "http://ns.adobe.com/Flows/1.0/">
]><svg xmlns="http://www.w3.org/2000/svg" xmlns:xlink="http://www.w3.org/1999/xlink" width="393" height="345" viewBox="26.682 89.123 393 345" enable-background="new 26.682 89.123 393 345"><text transform="translate(29.145 350.468)" fill="#fff" font-family="'Geometria-Light'" font-size="62">≈20 м</text><text transform="translate(29.145 382.468)"><tspan x="0" y="0" fill="#fff" font-family="'Geometria'" font-size="24">глубина моря в месте</tspan><tspan x="0" y="32" fill="#fff" font-family="'Geometria'" font-size="24">установки платформы</tspan></text><defs><path id="a" d="M30.777 111.847h162.24v162.24H30.778z"/></defs><clipPath id="b"><use xlink:href="#a" overflow="visible"/></clipPath><path clip-path="url(#b)" stroke="#fff" stroke-width="2" stroke-miterlimit="10" fill="none" d="M83.167 199.727v65.91"/><g clip-path="url(#b)" stroke="#fff" stroke-width="2" stroke-miterlimit="10" fill="none"><path d="M51.058 152.406h119.99v18.59H51.058zM171.047 170.996H51.057M182.687 186.352l-11.645-15.356H51.4l-13.762 17.486M171.047 170.996H51.057"/><path d="M69.647 118.606h42.25v33.8h-42.25zM111.897 130.437h49.01v21.97h-49.01zM98.377 56.17V35.795h-15.21V56.17l-3.38 27.61v34.826h20.28V83.78zM83.167 44.246h15.21M83.167 51.007h15.21M83.167 59.456h15.21M83.167 67.906h16.9"/><path stroke-linejoin="round" d="M121.99 129.645L135.51 1l13.52 128.817M195.38 98.744l-32.227 53.937M160.547 130.2l28.707-41.142"/><path d="M0 195.427c34.045 0 34.045-11.152 68.09-11.152 34.05 0 34.05 11.152 68.102 11.152s34.05-11.152 68.1-11.152"/><path stroke-linejoin="round" d="M189.254 89.058l20.348 27.13-8.17-30.476zM27.133 108.165L58.9 152.68M69.384 129.644l-31.746-24.96M128.12 70.923l16.524 20.604-20.565 18.7 23.875 19.835"/></g><path clip-path="url(#b)" stroke="#fff" stroke-width="1.5" stroke-miterlimit="10" fill="none" d="M75.63 207.265l7.537-7.538 7.538 7.538M90.705 258.1l-7.538 7.536-7.537-7.537"/><use xlink:href="#a" overflow="visible" stroke="#fff" stroke-miterlimit="10" fill="none"/><path stroke="#fff" stroke-width="2" stroke-miterlimit="10" fill="none" d="M30.777 111.156h162.24v162.24H30.778z"/><text transform="translate(98.376 241.974)" fill="#fff" font-family="'Geometria-Bold'" font-size="23.66">≈20 м</text></svg>