<!DOCTYPE svg PUBLIC "-//W3C//DTD SVG 1.1//EN" "http://www.w3.org/Graphics/SVG/1.1/DTD/svg11.dtd" [
	<!ENTITY ns_flows "http://ns.adobe.com/Flows/1.0/">
]><svg xmlns="http://www.w3.org/2000/svg" xmlns:xlink="http://www.w3.org/1999/xlink" width="393" height="345" viewBox="26.682 0 393 345" enable-background="new 26.682 0 393 345"><text transform="translate(30.543 243.311)"><tspan x="0" y="0" fill="#fff" font-family="'Geometria-Light'" font-size="62">&gt;70</tspan><tspan x="121.828" y="0" fill="#fff" font-family="'Geometria-Light'" font-size="62">млн т</tspan></text><text transform="translate(30.543 275.312)"><tspan x="0" y="0" fill="#fff" font-family="'Geometria'" font-size="24">составляют извлекаемые</tspan><tspan x="0" y="32" fill="#fff" font-family="'Geometria'" font-size="24">запасы нефти на месторож-</tspan><tspan x="0" y="64" fill="#fff" font-family="'Geometria'" font-size="24">дении Приразломное</tspan></text><path stroke="#fff" stroke-width="2" stroke-miterlimit="10" fill="none" d="M31.316 4h162.24v162.24H31.317zM31.316 113.85h162.24M60.046 113.85v-67.6l26.86-7.017 2.574 7.348M54.977 63.15h13.52M54.977 83.43h13.52M54.977 103.71h13.52"/><path stroke="#fff" stroke-width="2" stroke-miterlimit="10" fill="none" d="M166.516 113.85h-98.02V51.32l49.01-11.19 49.01 11.19zM90.466 58.08h76.05M90.466 95.26h76.05"/><defs><path id="a" d="M30.777 392.69h162.24v162.24H30.778z"/></defs><clipPath id="b"><use xlink:href="#a" overflow="visible"/></clipPath><path clip-path="url(#b)" stroke="#fff" stroke-width="2" stroke-miterlimit="10" fill="none" d="M83.167 480.57v65.91"/><g clip-path="url(#b)" stroke="#fff" stroke-width="2" stroke-miterlimit="10" fill="none"><path d="M51.058 433.25h119.99v18.59H51.058zM171.047 451.84H51.057M182.687 467.195l-11.645-15.355H51.4l-13.762 17.486M171.047 451.84H51.057"/><path d="M69.647 399.45h42.25v33.8h-42.25zM111.897 411.28h49.01v21.97h-49.01zM98.377 337.014V316.64h-15.21v20.374l-3.38 27.61v34.827h20.28v-34.827zM83.167 325.09h15.21M83.167 331.852h15.21M83.167 340.3h15.21M83.167 348.75h16.9"/><path stroke-linejoin="round" d="M121.99 410.488l13.52-128.644 13.52 128.818M195.38 379.588l-32.227 53.937M160.547 411.043l28.707-41.14"/><path d="M0 476.27c34.045 0 34.045-11.15 68.09-11.15 34.05 0 34.05 11.15 68.102 11.15s34.05-11.15 68.1-11.15"/><path stroke-linejoin="round" d="M189.254 369.902l20.348 27.13-8.17-30.475zM27.133 389.01L58.9 433.525M69.384 410.488l-31.746-24.96M128.12 351.768l16.524 20.603-20.565 18.7 23.875 19.836"/></g><path clip-path="url(#b)" stroke="#fff" stroke-width="1.5" stroke-miterlimit="10" fill="none" d="M75.63 488.11l7.537-7.54 7.538 7.54M90.705 538.943l-7.538 7.537-7.537-7.537"/><use xlink:href="#a" overflow="visible" stroke="#fff" stroke-miterlimit="10" fill="none"/></svg>