<!DOCTYPE svg PUBLIC "-//W3C//DTD SVG 1.1//EN" "http://www.w3.org/Graphics/SVG/1.1/DTD/svg11.dtd" [
	<!ENTITY ns_flows "http://ns.adobe.com/Flows/1.0/">
]><svg xmlns="http://www.w3.org/2000/svg" width="87" height="92" viewBox="-0.394 -0.333 87 92" enable-background="new -0.394 -0.333 87 92"><path fill="#1D3176" d="M60.1 12.67l-5.796 6.06L38.35 0 0 44.93l42.613 46.468 44.1-46.442L60.1 12.67zm-5.895 9.494l5.767-6.03L72.54 31.38c-1.64.883-6.09 2.965-11.758 2.965-9.883 0-14.887-10.472-28.59-10.472-6.307 0-11.35 2.113-15.158 4.643L38.35 3.546l15.855 18.618zM60.1 12.67l-5.796 6.06L38.35 0 0 44.93l42.613 46.468 44.1-46.442L60.1 12.67zm-5.895 9.494l5.767-6.03L83.534 44.72l-40.74 43.028-39.01-42.48 13.25-16.75L38.35 3.545l15.855 18.618z"/></svg>