<!DOCTYPE svg PUBLIC "-//W3C//DTD SVG 1.1//EN" "http://www.w3.org/Graphics/SVG/1.1/DTD/svg11.dtd" [
	<!ENTITY ns_flows "http://ns.adobe.com/Flows/1.0/">
]><svg xmlns="http://www.w3.org/2000/svg" width="191" height="75" viewBox="-0.438 -0.625 191 75" enable-background="new -0.438 -0.625 191 75"><path fill="#1D3176" d="M39.324.147C17.26 2.317-3.296 18.465.442 37.822c3.72 19.274 15.736 35.615 37.085 35.615 21.35 0 37.73-23.043 40.23-35.615C81.583 18.567 60.566-1.94 39.323.147zm30.16 35.113c-1.953 10.73-16.857 32.636-33.53 32.636-16.675 0-24.274-15.052-27.18-31.503-2.92-16.52 11.74-28.853 28.972-30.705 16.59-1.785 34.73 13.137 31.737 29.572z"/><path fill="#62B9E9" d="M37.746 5.688C20.516 7.54 5.856 19.873 8.774 36.393c2.905 16.45 10.505 31.503 27.18 31.503 16.673 0 31.577-21.905 33.53-32.636 2.99-16.435-15.15-31.357-31.738-29.572zm21.43 40.017c-4.594 7.5-20.93 19.01-32.43 14.366-11.5-4.645-12.188-18.04-9.215-31.18 2.985-13.195 18.23-19.052 30.677-15.642 11.98 3.282 18.005 20.973 10.97 32.457z"/><path fill="#D7E6BC" d="M48.207 13.25c-12.445-3.41-27.69 2.445-30.676 15.64-2.972 13.14-2.284 26.536 9.215 31.182 11.502 4.644 27.837-6.866 32.432-14.366 7.035-11.485 1.01-29.176-10.97-32.457zm6.798 32.61c-3.506 5.817-16.97 12.905-25.926 9.29-8.96-3.62-9.525-13.976-7.244-24.125 2.29-10.195 15.008-16 24.56-12.875 9.8 3.208 14.305 18.262 8.61 27.71z"/><path fill="#EF8300" d="M46.396 18.15c-9.552-3.125-22.27 2.68-24.56 12.875-2.28 10.15-1.715 20.505 7.243 24.124 8.956 3.615 22.42-3.473 25.925-9.29 5.696-9.448 1.19-24.502-8.61-27.71zm1.636 27.62c-4.705 6.07-14.16 5.115-19.937.077-5.56-4.85-4.555-15.62 1.887-19.74 4.207-2.688 16.372-4.613 21.356.815 4.983 5.43 1.377 12.8-3.306 18.847z"/><path fill="#FDD690" d="M29.982 26.106c-6.44 4.12-7.446 14.892-1.887 19.74 5.776 5.038 15.23 5.994 19.937-.078 4.683-6.046 8.29-13.418 3.307-18.847-4.986-5.427-17.15-3.502-21.358-.814zm15.758 16.78c-4.166 5.046-10.893 4.593-15.012 1.18-3.97-3.286-2.924-11.183 2.45-14.864 3.506-2.403 11.322-3.9 14.792-.12 3.47 3.776 1.917 8.782-2.23 13.805z"/><path fill="#fff" d="M33.178 29.2c-5.373 3.683-6.418 11.58-2.45 14.864 4.12 3.414 10.847 3.867 15.013-1.178 4.147-5.022 5.7-10.028 2.23-13.807-3.47-3.78-11.285-2.282-14.792.12zM102.45 26.354c0 .903-.162 1.66-.486 2.278-.322.616-.778 1.116-1.37 1.5-.594.384-1.31.66-2.15.833-.84.174-1.786.26-2.835.26-.917 0-1.707-.023-2.375-.067-.668-.045-1.175-.106-1.52-.182-.375-.073-.647-.19-.82-.348-.173-.16-.26-.448-.26-.87V15.556c0-.405.08-.695.236-.868.16-.172.418-.29.777-.35.3-.044.78-.093 1.44-.145.66-.053 1.433-.08 2.317-.08 1.02 0 1.955.08 2.802.237.848.157 1.58.416 2.193.777.614.36 1.09.83 1.43 1.408.337.58.506 1.298.506 2.154v.45c0 .752-.172 1.43-.516 2.04-.343.61-.857 1.063-1.544 1.365.687.3 1.22.732 1.6 1.295.382.564.572 1.274.572 2.13v.384zm-3.136-7.486c0-.78-.29-1.336-.868-1.667-.578-.33-1.59-.495-3.03-.495-.272 0-.555.005-.847.012-.294.007-.56.018-.8.033v4.577h2.86c.528 0 .964-.057 1.31-.17.345-.112.62-.266.822-.46.204-.197.345-.426.43-.69.08-.26.122-.536.122-.822v-.317zm.092 7.148c0-.314-.046-.615-.136-.9s-.245-.538-.463-.756c-.218-.22-.504-.395-.856-.53-.353-.136-.79-.202-1.32-.202h-2.86v4.96c.27 0 .586.008.946.022.36.016.66.022.9.022.723 0 1.324-.045 1.806-.135s.868-.232 1.16-.43c.293-.194.504-.44.63-.732.13-.293.194-.634.194-1.025v-.294zM117.328 19.523c0 .992-.176 1.826-.53 2.502-.354.677-.83 1.222-1.425 1.635-.596.414-1.285.707-2.067.88-.784.173-1.613.26-2.486.26-.303 0-.65-.012-1.04-.034-.392-.023-.716-.04-.973-.057v5.884c0 .12-.042.226-.124.315s-.185.134-.304.134h-2.256c-.122 0-.227-.045-.316-.135s-.136-.195-.136-.316V15.082c0-.226.063-.387.192-.484.13-.1.305-.163.532-.192.587-.09 1.265-.16 2.03-.214.77-.053 1.567-.08 2.397-.08.873 0 1.7.084 2.485.25.78.164 1.472.45 2.065.855.596.406 1.07.943 1.424 1.612.354.668.53 1.498.53 2.49v.203zm-3.133-.203c0-.946-.283-1.62-.846-2.018-.565-.398-1.41-.598-2.537-.598-.12 0-.274.005-.462.012-.187.007-.38.016-.574.022-.196.01-.38.015-.553.02-.173.01-.313.022-.417.036v5.365c.09 0 .23.003.417.01.188.01.384.016.586.022.202.008.396.016.586.022.188.01.326.013.417.013 1.217 0 2.085-.226 2.604-.677s.778-1.128.778-2.03v-.2zM129.493 30.774c-.068.06-.185.104-.35.135l-.597.1c-.22.038-.49.07-.813.103-.323.03-.714.056-1.173.078-.457.024-1.026.035-1.702.035-.737 0-1.422-.06-2.055-.18-.635-.12-1.185-.35-1.654-.69-.47-.338-.842-.807-1.114-1.407-.272-.603-.407-1.383-.407-2.347v-7.866c0-.963.134-1.743.406-2.345s.645-1.07 1.113-1.41c.47-.338 1.02-.567 1.653-.688.633-.12 1.317-.18 2.055-.18.676 0 1.245.01 1.702.033.46.022.85.05 1.173.078.323.03.593.064.813.102.217.038.416.07.597.102.165.03.28.076.35.136.067.06.1.172.1.338v1.444c0 .12-.044.226-.135.315-.09.09-.194.135-.314.135h-4.6c-.662 0-1.123.135-1.387.405s-.395.782-.395 1.533v2.434h6.11c.12 0 .225.047.314.137.092.09.136.195.136.316v1.622c0 .12-.044.226-.136.315-.09.09-.194.135-.314.135h-6.11V26.6c0 .754.13 1.263.395 1.534s.725.407 1.387.407h4.6c.12 0 .226.045.314.134.09.092.136.197.136.318v1.44c0 .17-.033.283-.1.342zM147.225 30.965c-.076.054-.166.08-.27.08h-2.278c-.105 0-.19-.046-.26-.136s-.1-.195-.1-.316V20.11c0-.15-.023-.227-.07-.227-.014 0-.052.046-.11.137l-2.165 4.306c-.076.12-.177.214-.305.28s-.268.103-.417.103h-2.277c-.15 0-.29-.035-.417-.103s-.23-.162-.304-.28l-2.188-4.307c-.062-.09-.098-.137-.112-.137-.045 0-.067.075-.067.226v10.483c0 .12-.035.226-.103.315s-.153.135-.26.135h-2.276c-.105 0-.195-.025-.27-.08-.076-.05-.113-.137-.113-.258v-15.51c0-.256.085-.47.26-.644.17-.172.386-.258.64-.258h1.85c.182 0 .347.05.497.146.15.1.263.23.338.396l3.404 6.898c.06.105.105.186.136.236.03.054.068.08.112.08.046 0 .083-.026.112-.08l.137-.236 3.402-6.898c.076-.165.188-.297.338-.396.15-.097.316-.146.496-.146h1.85c.256 0 .47.086.643.26s.258.387.258.642v15.512c0 .12-.04.207-.113.26zM149.75 30.774c0-.075.015-.136.045-.18l3.54-6.585c-.94-.36-1.685-.917-2.238-1.67-.553-.75-.828-1.728-.828-2.93v-.202c0-.963.175-1.77.528-2.424.354-.654.827-1.177 1.42-1.568.595-.39 1.28-.672 2.064-.846.78-.17 1.608-.26 2.48-.26.826 0 1.623.027 2.39.08.767.053 1.443.124 2.03.214.225.03.4.094.528.192.13.098.192.26.192.484v15.512c0 .12-.045.226-.135.315-.09.09-.195.135-.316.135h-2.254c-.12 0-.222-.045-.304-.135-.083-.09-.125-.194-.125-.315v-6.11l-.965.057c-.39.02-.733.032-1.033.032h-.315l-3.233 6.02c-.06.122-.12.227-.18.316-.06.09-.15.135-.27.135h-2.752c-.18 0-.27-.09-.27-.27zM153.4 19.41c0 .992.27 1.676.808 2.053.54.375 1.393.563 2.56.563.09 0 .23-.003.416-.01.187-.01.38-.016.584-.023l.584-.023c.186-.007.325-.01.414-.01v-5.073c-.104-.015-.242-.025-.414-.033-.173-.008-.357-.016-.55-.023l-.573-.02c-.187-.01-.34-.012-.46-.012-1.122 0-1.963.187-2.524.564-.563.373-.843.99-.843 1.85v.198zM103.396 52.104c0 .122-.038.215-.113.28-.075.07-.173.105-.293.105h-2.39c-.104 0-.195-.038-.27-.115-.075-.075-.128-.165-.158-.27l-1.037-4.285H93.95l-1.038 4.284c-.03.105-.083.195-.158.27-.074.078-.165.115-.27.115h-2.39c-.122 0-.22-.035-.294-.105-.076-.066-.112-.16-.112-.28 0-.016.003-.03.01-.045.01-.016.013-.038.013-.068l3.698-14.136c.135-.526.33-.938.586-1.24.255-.3.53-.53.823-.688.293-.158.593-.26.9-.306.31-.044.584-.067.824-.067s.516.023.824.067c.308.045.61.147.902.306.293.157.566.388.82.688.258.302.452.714.588 1.24l3.697 14.136c0 .03.005.053.013.068.01.013.013.03.013.044zm-6.494-13.55c-.03-.136-.066-.23-.112-.282-.045-.052-.128-.08-.248-.08s-.203.028-.248.08c-.044.054-.083.146-.112.28L94.56 45.25h3.967l-1.625-6.697zM117.328 40.967c0 .99-.176 1.825-.53 2.502-.354.675-.828 1.22-1.425 1.634-.596.413-1.285.707-2.067.88-.784.173-1.613.258-2.486.258-.303 0-.65-.01-1.04-.033l-.972-.058v5.885c0 .12-.043.226-.125.315s-.185.137-.304.137h-2.256c-.12 0-.227-.048-.316-.138s-.136-.194-.136-.315V36.525c0-.226.064-.388.193-.485.128-.1.304-.16.53-.192.588-.09 1.266-.16 2.032-.214.77-.05 1.567-.08 2.396-.08.873 0 1.7.085 2.485.25.783.166 1.472.45 2.065.856.596.406 1.07.943 1.425 1.61.354.67.53 1.5.53 2.493v.204zm-3.133-.203c0-.946-.283-1.62-.846-2.02-.565-.397-1.41-.596-2.537-.596-.12 0-.274.004-.462.01-.187.01-.38.017-.574.023-.196.01-.38.017-.553.024s-.313.02-.416.033v5.365c.09 0 .23.005.416.012.188.01.384.016.586.023l.586.02s.327.014.417.014c1.217 0 2.085-.225 2.604-.676.518-.452.777-1.13.777-2.03v-.2zM131.804 52.285c0 .135-.112.203-.338.203h-3.02c-.242 0-.415-.084-.522-.25l-5.162-7.687v7.485c0 .12-.045.226-.136.315-.09.09-.195.137-.315.137h-2.23c-.12 0-.225-.047-.315-.137s-.135-.194-.135-.315V36.188c0-.12.044-.223.135-.306.09-.082.194-.124.315-.124h2.23c.12 0 .227.042.316.124.09.083.136.186.136.306v7.168l5.523-7.417c.06-.075.132-.125.215-.147s.184-.034.305-.034h2.57c.285 0 .428.09.428.27 0 .104-.053.226-.158.36l-5.77 7.462 5.815 8.162c.076.12.114.212.114.27zM144.79 38.238c-.09.075-.196.113-.315.113h-3.945v13.686c0 .12-.045.226-.136.315-.09.09-.196.138-.315.138h-2.233c-.12 0-.226-.047-.315-.137s-.136-.193-.136-.314V38.352h-3.945c-.12 0-.225-.038-.314-.113-.09-.075-.136-.174-.136-.295v-1.78c0-.12.046-.223.136-.305s.194-.124.315-.124h11.026c.12 0 .226.042.315.124s.137.186.137.305v1.78c0 .12-.047.22-.137.293zM147.02 36.164c0-.285.145-.43.43-.43h1.94c.284 0 .427.145.427.43v11.86c0 .135.037.2.113.2.074 0 .136-.06.18-.18l5.254-11.59c.136-.298.274-.494.417-.585.144-.09.335-.136.576-.136h2.435c.257 0 .47.087.644.26.172.172.26.387.26.643v15.398c0 .12-.045.226-.135.315-.093.09-.197.137-.317.137h-1.916c-.12 0-.223-.047-.305-.137-.083-.09-.124-.194-.124-.315v-11.34c0-.12-.038-.18-.113-.18s-.142.06-.202.18l-5.005 10.98c-.182.406-.388.643-.62.71-.233.068-.484.103-.756.103h-2.277c-.255 0-.47-.088-.643-.26-.173-.173-.26-.388-.26-.643v-15.42zM175.25 52.285c0 .135-.112.203-.338.203h-3.022c-.24 0-.413-.084-.518-.25l-5.163-7.687v7.485c0 .12-.046.226-.136.315-.09.09-.195.137-.316.137h-2.232c-.12 0-.226-.047-.314-.137-.09-.09-.136-.194-.136-.315V36.188c0-.12.045-.223.136-.306.09-.082.194-.124.314-.124h2.232c.12 0 .226.042.316.124.09.083.135.186.135.306v7.168l5.523-7.417c.06-.075.13-.125.213-.147s.185-.034.305-.034h2.57c.286 0 .43.09.43.27 0 .104-.054.226-.157.36l-5.772 7.462 5.818 8.162c.073.12.112.212.112.27zM177.12 36.164c0-.285.144-.43.43-.43h1.94c.283 0 .427.145.427.43v11.86c0 .135.037.2.112.2.075 0 .135-.06.18-.18l5.254-11.59c.135-.298.274-.494.416-.585.143-.09.335-.136.575-.136h2.436c.256 0 .47.087.644.26.172.172.26.387.26.643v15.398c0 .12-.047.226-.137.315-.09.09-.194.137-.314.137h-1.918c-.12 0-.22-.047-.303-.137-.084-.09-.125-.194-.125-.315v-11.34c0-.12-.038-.18-.113-.18-.074 0-.143.06-.202.18l-5.006 10.98c-.18.406-.387.643-.62.71-.232.068-.483.103-.755.103h-2.275c-.256 0-.472-.088-.644-.26-.172-.173-.258-.388-.258-.643v-15.42zM93.32 64.97c0 .038-.013.067-.035.09-.023.02-.054.03-.092.03h-.745c-.032 0-.06-.012-.085-.036-.022-.02-.038-.05-.048-.083l-.323-1.334h-1.615l-.323 1.335c-.01.033-.026.063-.05.084-.022.024-.05.036-.084.036h-.746c-.036 0-.066-.01-.09-.03-.024-.022-.036-.052-.036-.09 0-.005.002-.008.004-.013.003-.006.004-.012.004-.02l1.152-4.406c.042-.164.103-.29.183-.386.08-.093.165-.165.257-.215.092-.05.185-.08.28-.095.097-.015.183-.02.257-.02.076 0 .16.006.257.02.098.014.19.046.28.094.094.05.18.12.26.214.078.095.14.222.182.387l1.152 4.406c0 .01 0 .016.003.02.002.006.002.01.002.015zm-2.023-4.222c-.01-.042-.02-.07-.035-.09-.014-.015-.04-.022-.078-.022-.036 0-.063.008-.077.023-.014.017-.025.046-.034.088l-.506 2.087h1.236l-.506-2.087zM98.033 61.5c0 .31-.055.568-.165.78-.11.21-.258.38-.443.51-.186.13-.4.22-.645.272s-.503.082-.774.082c-.095 0-.202-.004-.324-.012l-.303-.018v1.833c0 .038-.015.07-.04.1-.026.028-.058.042-.096.042h-.7c-.04 0-.072-.015-.1-.043-.028-.03-.042-.062-.042-.1v-4.833c0-.07.02-.12.06-.15.04-.03.095-.05.165-.06.184-.027.395-.05.635-.067s.486-.024.745-.024c.27 0 .53.026.774.077.245.052.46.14.645.268.186.126.334.293.443.5.11.21.165.47.165.78v.062zm-.975-.062c0-.296-.09-.506-.263-.63-.177-.124-.44-.187-.792-.187-.037 0-.084.002-.145.005l-.18.008-.17.006c-.054.002-.097.007-.13.01v1.673c.026 0 .07 0 .13.003s.12.005.183.006l.184.01.13.002c.38 0 .65-.07.81-.21.163-.142.244-.353.244-.633v-.062zM103.015 65.027c0 .04-.036.063-.105.063h-.94c-.075 0-.13-.025-.162-.078l-1.61-2.396v2.332c0 .038-.013.07-.04.1-.028.028-.063.042-.1.042h-.695c-.037 0-.07-.014-.1-.042-.027-.03-.04-.062-.04-.1V60.01c0-.037.013-.07.04-.094.03-.026.063-.038.1-.038h.696c.035 0 .07.012.097.038.028.024.042.057.042.094v2.234l1.722-2.312c.018-.022.04-.038.065-.046.026-.006.058-.01.095-.01h.802c.09 0 .133.028.133.084 0 .033-.016.07-.05.112l-1.798 2.326 1.81 2.543c.023.04.035.068.035.087zM107.482 60.65c-.027.022-.06.034-.098.034h-1.23v4.264c0 .038-.013.07-.04.1-.03.028-.062.042-.1.042h-.695c-.038 0-.07-.014-.1-.042-.027-.03-.04-.062-.04-.1v-4.264h-1.232c-.036 0-.07-.012-.097-.035-.027-.024-.042-.055-.042-.093v-.555c0-.037.015-.068.043-.095.027-.024.062-.04.098-.04h3.437c.038 0 .07.016.098.04.028.026.043.058.043.095v.555c0 .04-.015.07-.044.092zM108.648 60.003c0-.09.045-.134.135-.134h.604c.09 0 .132.044.132.133V63.7c0 .04.012.062.034.062.024 0 .043-.02.057-.057l1.64-3.61c.042-.095.083-.156.13-.184.044-.027.103-.042.178-.042h.76c.078 0 .145.027.2.082.053.054.08.12.08.2v4.797c0 .038-.015.07-.043.1-.027.028-.06.042-.097.042h-.598c-.038 0-.07-.015-.095-.043-.027-.03-.04-.062-.04-.1v-3.533c0-.037-.012-.056-.034-.056-.022 0-.044.02-.062.056l-1.56 3.42c-.056.128-.12.202-.193.224-.073.02-.15.03-.235.03h-.71c-.078 0-.146-.025-.2-.08-.054-.053-.08-.12-.08-.2v-4.805zM114.044 59.916c.03-.03.062-.047.1-.047h.695c.036 0 .07.015.098.046.027.03.042.064.042.102v1.61c0 .152.017.278.05.374.037.097.093.172.168.225.074.055.166.092.277.113.11.02.24.03.39.03.187 0 .384-.023.59-.07.206-.046.38-.097.52-.153v-2.13c0-.036.015-.07.043-.1.028-.032.06-.048.1-.048h.693c.04 0 .07.015.1.046.028.03.042.064.042.102v4.93c0 .04-.014.07-.042.1-.028.03-.06.043-.1.043h-.693c-.038 0-.07-.013-.1-.04-.027-.03-.04-.063-.04-.1v-2.023c-.147.06-.34.12-.578.176-.238.056-.5.084-.788.084-.29 0-.536-.04-.74-.12-.204-.08-.37-.188-.5-.33-.128-.14-.22-.305-.28-.495-.06-.19-.087-.393-.087-.607V60.02c-.002-.04.013-.075.04-.104zM122.43 65.006c-.022.018-.057.032-.11.042-.056.008-.117.02-.186.032-.067.01-.152.022-.252.03-.1.01-.223.018-.365.025-.144.006-.32.01-.53.01-.23 0-.443-.02-.64-.056-.2-.038-.37-.11-.518-.215-.147-.105-.263-.252-.348-.44s-.127-.43-.127-.73v-2.45c0-.3.042-.544.127-.73s.2-.335.347-.44c.146-.105.317-.177.516-.215.197-.036.41-.056.64-.056.21 0 .388.005.53.01.144.01.266.017.366.025.1.008.185.02.252.03l.187.032c.054.01.09.024.11.042.02.02.03.055.03.104v.45c0 .038-.013.07-.04.1-.03.027-.062.04-.1.04h-1.433c-.207 0-.35.043-.433.127s-.122.244-.122.48v.758h1.902c.038 0 .07.015.1.042.027.028.04.062.04.1v.505c0 .037-.013.07-.04.1-.03.027-.062.04-.1.04h-1.902v.907c0 .234.04.393.122.478.082.084.226.127.433.127h1.433c.038 0 .07.013.1.04.027.03.04.062.04.1v.45c0 .05-.01.084-.03.104zM126.887 64.98c-.027.02-.065.038-.112.053-.028.01-.075.02-.145.032-.067.012-.15.024-.25.034-.098.012-.207.022-.33.03-.12.01-.25.016-.385.016-.212 0-.434-.03-.668-.093-.233-.06-.447-.17-.64-.332-.194-.16-.354-.38-.482-.658-.127-.275-.19-.63-.19-1.066v-1.032c0-.44.063-.8.19-1.08.13-.277.288-.495.48-.655s.408-.27.642-.328c.234-.06.456-.088.668-.088.135 0 .265.006.386.014.123.01.232.02.33.03.1.013.183.026.25.04.07.015.116.024.145.028.047.014.085.03.112.053.028.02.043.057.043.108v.47c0 .043-.01.078-.032.106-.02.027-.057.042-.11.042h-.013c-.06-.005-.135-.01-.22-.02l-.28-.016-.3-.014c-.105-.005-.203-.008-.296-.008-.15 0-.29.02-.412.067-.124.044-.23.115-.318.217-.09.102-.16.236-.212.404-.05.17-.078.378-.078.626v1.032c0 .243.027.45.078.618.052.168.122.305.212.407.088.103.194.177.318.222.123.043.26.066.41.066.094 0 .192-.003.296-.008l.302-.015c.098-.003.19-.01.278-.017.086-.007.16-.013.22-.02h.015c.052 0 .088.016.108.044.02.027.032.063.032.106v.47c0 .056-.015.092-.043.112zM131.995 65.027c0 .04-.036.063-.106.063h-.942c-.074 0-.13-.025-.16-.078l-1.61-2.396v2.332c0 .038-.014.07-.042.1-.028.028-.06.042-.098.042h-.696c-.037 0-.07-.014-.1-.042-.026-.03-.04-.062-.04-.1V60.01c0-.037.014-.07.04-.094.03-.026.063-.038.1-.038h.696c.037 0 .07.012.098.038.028.024.042.057.042.094v2.234l1.722-2.312c.02-.022.04-.038.066-.046.026-.006.058-.01.096-.01h.8c.09 0 .135.028.135.084 0 .033-.02.07-.05.112l-1.8 2.326 1.814 2.543c.023.04.035.068.035.087zM137.018 64.97c0 .038-.012.067-.036.09-.022.02-.052.03-.09.03h-.745c-.032 0-.062-.012-.084-.036-.024-.02-.04-.05-.05-.083l-.323-1.334h-1.616l-.323 1.335c-.007.033-.024.063-.047.084-.024.024-.053.036-.085.036h-.744c-.04 0-.068-.01-.092-.03s-.035-.052-.035-.09c0-.005 0-.008.004-.013.003-.006.004-.012.004-.02l1.152-4.406c.042-.164.103-.29.182-.386.08-.093.167-.165.257-.215.09-.05.186-.08.28-.095.098-.015.183-.02.258-.02.074 0 .16.006.257.02.096.014.19.046.28.094.09.05.177.12.257.214.08.095.14.222.183.387l1.152 4.406c0 .01 0 .016.003.02l.003.015zm-2.024-4.222c-.01-.042-.02-.07-.035-.09-.016-.015-.042-.022-.078-.022-.038 0-.063.008-.077.023-.014.017-.026.046-.035.088l-.507 2.087h1.236l-.506-2.087zM137.847 65.006c0-.023.005-.043.014-.058l1.104-2.05c-.293-.112-.524-.285-.697-.52-.172-.236-.258-.54-.258-.914V61.4c0-.3.054-.55.164-.753.11-.204.258-.366.442-.49.186-.12.4-.208.645-.263.243-.054.5-.08.773-.08.257 0 .505.007.744.023.238.017.45.04.632.067.07.01.124.03.164.06.04.03.06.08.06.15v4.833c0 .038-.014.07-.04.1-.03.028-.063.042-.1.042h-.702c-.04 0-.07-.015-.096-.043-.026-.03-.038-.062-.038-.1v-1.903l-.3.018c-.123.008-.23.01-.324.01h-.098l-1.008 1.876c-.018.038-.037.07-.056.1-.02.028-.047.042-.085.042h-.856c-.055 0-.083-.028-.083-.084zm1.137-3.54c0 .31.084.52.252.64s.434.175.797.175c.03 0 .07 0 .13-.004.06 0 .12-.004.183-.006l.18-.008.132-.003v-1.58c-.034-.007-.076-.01-.13-.012-.054-.003-.11-.005-.17-.01-.063 0-.122-.003-.18-.005-.06-.003-.106-.004-.145-.004-.35 0-.612.058-.786.176-.176.116-.263.31-.263.575v.065zM149.234 64.948c0 .038-.014.07-.04.1-.03.028-.063.042-.1.042h-.696c-.037 0-.07-.014-.098-.042-.028-.03-.043-.062-.043-.1v-3.87c0-.136-.02-.227-.063-.274-.042-.047-.12-.07-.23-.07h-1.406c-.112 0-.19.023-.23.07-.044.048-.064.14-.064.274v3.87c0 .038-.014.07-.042.1-.028.028-.06.042-.1.042h-.694c-.037 0-.07-.014-.098-.042-.028-.03-.042-.062-.042-.1v-3.87c0-.42.097-.728.295-.92.195-.192.52-.29.976-.29h1.404c.455 0 .78.098.977.29.198.192.296.5.296.92v3.87zM154.343 61.5c0 .31-.056.568-.167.78-.11.21-.257.38-.443.51s-.4.22-.645.272c-.243.054-.503.082-.774.082-.095 0-.202-.004-.324-.012l-.304-.018v1.833c0 .038-.013.07-.038.1-.025.028-.057.042-.095.042h-.702c-.037 0-.07-.015-.098-.043-.028-.03-.042-.062-.042-.1v-4.833c0-.07.02-.12.06-.15.04-.03.096-.05.166-.06.183-.027.395-.05.634-.067.238-.017.487-.024.746-.024.27 0 .53.026.774.077.243.052.458.14.643.268.187.126.333.293.443.5.11.21.167.47.167.78v.062zm-.977-.062c0-.296-.088-.506-.264-.63-.175-.124-.44-.187-.79-.187-.037 0-.087.002-.146.005l-.18.008-.172.006c-.053.002-.096.007-.13.01v1.673c.028 0 .072 0 .13.003.06.003.12.005.184.006l.183.01.13.002c.38 0 .65-.07.813-.21.162-.142.243-.353.243-.633v-.062zM159.386 62.954c0 .39-.05.72-.15.998-.1.276-.24.502-.417.678s-.39.306-.632.39c-.244.084-.51.127-.8.127-.29 0-.558-.043-.8-.128-.242-.084-.453-.214-.63-.39s-.318-.4-.418-.678c-.1-.277-.15-.608-.15-.998v-.948c0-.384.05-.715.15-.994.1-.278.24-.507.417-.682.178-.176.39-.306.63-.39s.51-.127.8-.127c.29 0 .557.04.8.126.243.084.454.214.632.39.177.175.315.403.416.682.1.28.15.61.15.994v.948zm-.976-.948c0-.468-.084-.81-.25-1.02-.168-.215-.425-.32-.772-.32s-.605.105-.772.32c-.167.21-.25.553-.25 1.02v.948c0 .468.083.81.25 1.02.167.215.425.32.772.32s.604-.105.77-.32c.168-.21.252-.553.252-1.02v-.948zM161.705 64.948c0 .038-.016.07-.044.1-.026.028-.06.042-.097.042h-.694c-.04 0-.07-.014-.1-.042-.027-.03-.042-.062-.042-.1v-3.694c0-.3.04-.543.127-.73.085-.188.2-.334.347-.44s.317-.176.516-.214c.197-.036.41-.056.64-.056.212 0 .39.005.53.01.144.01.265.017.366.025.1.008.186.02.252.03l.187.032c.052.01.088.024.108.042.022.02.033.055.033.104v.45c0 .038-.014.07-.042.1-.027.027-.06.04-.098.04h-1.433c-.207 0-.352.043-.433.127-.083.084-.123.244-.123.48v3.693zM168.828 61.5c0 .31-.055.568-.165.78-.11.21-.258.38-.443.51-.187.13-.4.22-.646.272s-.502.082-.774.082c-.095 0-.202-.004-.324-.012l-.304-.018v1.833c0 .038-.013.07-.037.1-.026.028-.058.042-.096.042h-.703c-.038 0-.07-.015-.1-.043-.027-.03-.04-.062-.04-.1v-4.833c0-.07.02-.12.06-.15.038-.03.095-.05.165-.06.183-.027.395-.05.633-.067.24-.017.488-.024.746-.024.273 0 .53.026.775.077.244.052.46.14.645.268.186.126.333.293.443.5.11.21.165.47.165.78v.062zm-.976-.062c0-.296-.088-.506-.263-.63-.177-.124-.44-.187-.792-.187-.037 0-.087.002-.145.005l-.18.008-.17.006c-.055.002-.1.007-.132.01v1.673c.03 0 .073 0 .132.003.058.003.12.005.184.006l.18.01.132.002c.38 0 .65-.07.812-.21.16-.142.242-.353.242-.633v-.062zM173.5 64.97c0 .038-.012.067-.035.09-.022.02-.053.03-.092.03h-.744c-.033 0-.062-.012-.085-.036-.023-.02-.04-.05-.05-.083l-.323-1.334h-1.616l-.322 1.335c-.01.033-.027.063-.05.084-.023.024-.052.036-.084.036h-.744c-.038 0-.068-.01-.092-.03s-.035-.052-.035-.09c0-.005 0-.008.003-.013.003-.006.003-.012.003-.02l1.152-4.406c.043-.164.103-.29.183-.386.08-.093.167-.165.257-.215.092-.05.186-.08.28-.095.098-.015.183-.02.258-.02.074 0 .16.006.257.02.096.014.19.046.28.094.092.05.177.12.257.214.08.095.14.222.182.387l1.152 4.406c0 .01 0 .016.004.02l.002.015zm-2.023-4.222c-.01-.042-.02-.07-.035-.09-.015-.015-.04-.022-.077-.022-.038 0-.063.008-.077.023-.014.017-.026.046-.036.088l-.506 2.087h1.236l-.505-2.087zM179.058 65.065c-.023.016-.052.024-.085.024h-.71c-.032 0-.06-.015-.08-.043-.02-.03-.032-.062-.032-.1v-3.265c0-.048-.005-.07-.02-.07-.006 0-.017.014-.035.04l-.675 1.343c-.024.038-.055.066-.095.087-.04.022-.083.032-.13.032h-.71c-.046 0-.09-.01-.13-.032-.04-.02-.07-.05-.096-.087l-.682-1.342c-.02-.027-.03-.04-.035-.04-.014 0-.02.02-.02.07v3.264c0 .038-.012.07-.032.1-.02.028-.048.042-.08.042h-.71c-.033 0-.06-.01-.083-.025-.024-.017-.036-.044-.036-.08V60.15c0-.08.028-.146.082-.2.054-.054.12-.08.2-.08h.576c.057 0 .107.015.154.046.047.03.082.07.105.123l1.06 2.148.044.073c.01.02.022.025.035.025.015 0 .026-.007.035-.024.01-.015.023-.04.042-.072l1.062-2.15c.023-.05.058-.093.104-.122.047-.03.1-.047.154-.047h.576c.08 0 .146.026.2.08.054.055.082.12.082.2v4.834c.003.037-.01.065-.032.08zM185.043 65.065c-.023.016-.052.024-.084.024h-.712c-.03 0-.06-.015-.08-.043-.02-.03-.032-.062-.032-.1v-3.265c0-.048-.006-.07-.02-.07-.006 0-.017.014-.035.04l-.675 1.343c-.023.038-.055.066-.095.087-.04.022-.082.032-.13.032h-.71c-.046 0-.09-.01-.13-.032-.04-.02-.07-.05-.094-.087l-.682-1.342c-.02-.027-.03-.04-.036-.04-.014 0-.02.02-.02.07v3.264c0 .038-.012.07-.032.1-.02.028-.048.042-.08.042h-.71c-.033 0-.062-.01-.084-.025-.024-.017-.036-.044-.036-.08V60.15c0-.08.026-.146.08-.2.055-.054.122-.08.202-.08h.574c.058 0 .11.015.155.046.047.03.08.07.105.123l1.06 2.148.044.073c.01.02.02.025.034.025.015 0 .026-.007.036-.024.01-.015.023-.04.04-.072l1.063-2.15c.022-.05.057-.093.104-.122.047-.03.098-.047.154-.047h.576c.08 0 .146.026.2.08.054.055.08.12.08.2v4.834c.004.037-.01.065-.03.08zM190.432 64.97c0 .038-.012.067-.036.09-.022.02-.054.03-.09.03h-.746c-.032 0-.06-.012-.084-.036-.024-.02-.04-.05-.05-.083l-.323-1.334h-1.615l-.323 1.335c-.008.033-.026.063-.05.084-.023.024-.052.036-.084.036h-.743c-.038 0-.067-.01-.09-.03-.025-.022-.037-.052-.037-.09 0-.005 0-.008.004-.013.003-.006.004-.012.004-.02l1.15-4.406c.044-.164.105-.29.184-.386.08-.093.166-.165.257-.215.09-.05.185-.08.28-.095.096-.015.182-.02.257-.02.074 0 .16.006.256.02s.19.046.28.094c.092.05.178.12.258.214.08.095.14.222.183.387l1.152 4.406c0 .01.002.016.004.02l.002.015zm-2.024-4.222c-.01-.042-.02-.07-.036-.09-.014-.015-.04-.022-.076-.022-.038 0-.063.008-.077.023-.016.017-.027.046-.037.088l-.506 2.087h1.236l-.505-2.087zM90.42 73.24c0 .037-.016.07-.043.098-.03.028-.063.042-.1.042h-.694c-.038 0-.07-.014-.1-.042-.027-.027-.04-.06-.04-.098v-3.694c0-.3.04-.544.125-.73.085-.188.2-.334.348-.44.146-.105.318-.177.516-.214.197-.038.41-.056.64-.056.21 0 .388.002.53.01.144.007.265.017.366.024.1.01.185.02.252.03l.187.034c.053.01.088.022.11.042.02.018.03.053.03.105v.45c0 .037-.014.07-.042.097-.028.028-.06.043-.1.043h-1.432c-.206 0-.35.042-.433.127-.08.084-.122.243-.122.48v3.693zM97.078 73.26c0 .04-.012.07-.035.09-.023.02-.054.03-.092.03h-.744c-.032 0-.06-.01-.084-.034-.022-.024-.04-.053-.05-.085l-.32-1.332h-1.617l-.322 1.333c-.01.033-.027.062-.05.086-.023.023-.052.034-.085.034h-.745c-.036 0-.066-.01-.09-.03-.024-.02-.036-.05-.036-.09 0-.004.002-.01.004-.012.004-.005.004-.013.004-.02l1.152-4.406c.042-.164.104-.292.184-.386.078-.094.164-.166.255-.215.093-.05.186-.08.28-.094.098-.015.183-.02.258-.02s.16.005.257.02c.096.014.19.045.28.095.092.05.177.122.257.216s.142.222.184.386l1.153 4.405c0 .01 0 .017.003.02l.002.014zm-2.023-4.22c-.01-.043-.02-.072-.034-.09-.014-.016-.04-.024-.077-.024s-.063.01-.077.025c-.014.018-.025.047-.035.09l-.505 2.086h1.236l-.505-2.087zM101.163 72.6c-.09.187-.215.344-.37.47-.16.122-.345.216-.56.276-.216.06-.448.092-.696.092-.262 0-.502-.017-.72-.05-.218-.032-.428-.074-.63-.127-.036-.01-.068-.024-.094-.044-.026-.02-.04-.05-.04-.088v-.436c0-.036.014-.07.036-.09.022-.025.053-.036.09-.036h.015c.28.027.533.05.756.07.223.02.42.027.587.027.286 0 .488-.063.607-.187.12-.124.18-.31.18-.56v-.145c0-.093-.008-.183-.025-.267-.017-.084-.05-.158-.1-.226-.05-.064-.114-.118-.2-.157-.083-.04-.19-.06-.322-.06h-1.244c-.088 0-.133-.044-.133-.134v-.44c0-.092.046-.136.134-.136h1.244c.132 0 .24-.018.323-.056.086-.037.15-.09.2-.15.05-.063.083-.137.1-.22.017-.082.024-.17.024-.263v-.11c0-.09-.01-.176-.032-.257-.02-.082-.06-.153-.118-.215-.06-.06-.14-.11-.243-.147-.103-.036-.233-.056-.393-.056-.125 0-.237.003-.334.008-.096.005-.193.01-.292.018-.097.006-.2.018-.314.03-.112.015-.246.03-.4.044h-.015c-.036 0-.066-.012-.09-.036-.022-.022-.035-.053-.035-.09v-.437c0-.036.013-.065.04-.087.024-.02.057-.036.094-.046.2-.052.41-.094.628-.126.218-.032.458-.048.72-.048.253 0 .487.026.702.076.216.053.402.135.56.25.156.114.28.263.368.445.09.185.133.408.133.675v.112c0 .25-.05.458-.156.63-.105.17-.254.307-.445.41.195.107.344.257.448.445.103.19.153.397.153.623v.146c0 .268-.044.493-.137.685zM106.654 73.24c0 .037-.015.07-.043.098-.026.028-.06.042-.098.042h-.694c-.038 0-.07-.014-.1-.042-.026-.027-.04-.06-.04-.098v-3.87c0-.137-.022-.228-.064-.274s-.12-.07-.23-.07h-1.407c-.112 0-.188.023-.23.07-.043.047-.064.138-.064.273v3.87c0 .037-.015.07-.043.098-.028.028-.06.042-.1.042h-.694c-.037 0-.07-.014-.098-.042-.028-.027-.042-.06-.042-.098v-3.87c0-.423.097-.73.295-.92.197-.193.523-.29.977-.29h1.406c.453 0 .78.097.977.29.196.19.295.497.295.92v3.87zM111.762 69.792c0 .308-.056.567-.166.777-.11.212-.258.38-.443.51-.187.13-.4.22-.645.273s-.503.08-.775.08c-.094 0-.2-.002-.324-.01l-.304-.018v1.834c0 .036-.013.07-.038.097-.025.028-.058.042-.096.042h-.702c-.037 0-.07-.015-.1-.043-.027-.027-.04-.06-.04-.098v-4.835c0-.07.02-.12.06-.15.04-.03.094-.05.164-.06.184-.028.395-.05.635-.066.237-.018.487-.025.744-.025.272 0 .53.026.775.076.243.054.457.142.643.27.186.125.333.294.443.5.11.21.166.468.166.776v.066zm-.977-.065c0-.294-.088-.503-.264-.627-.174-.124-.438-.188-.79-.188-.037 0-.085 0-.145.005-.058.002-.117.005-.18.006l-.17.008c-.054.003-.097.006-.13.01v1.673c.027 0 .07 0 .13.004l.182.007.183.008.13.003c.38 0 .65-.07.812-.21.162-.142.243-.352.243-.632v-.066zM116.806 71.245c0 .388-.05.72-.15.998-.1.275-.24.502-.418.678-.178.176-.388.307-.63.39-.245.085-.51.128-.8.128-.29 0-.557-.043-.8-.127s-.454-.214-.632-.39c-.177-.175-.315-.4-.417-.677-.102-.277-.15-.61-.15-.998v-.948c0-.384.05-.715.15-.995.1-.277.24-.506.416-.68.178-.177.39-.307.632-.392.243-.084.51-.125.8-.125.29 0 .555.04.8.125.242.085.452.215.63.39.178.176.317.404.417.682.1.28.15.61.15.995v.948zm-.977-.948c0-.47-.084-.81-.252-1.023-.167-.21-.424-.318-.77-.318s-.605.107-.772.318c-.167.214-.25.555-.25 1.023v.948c0 .47.083.81.25 1.022.167.214.424.32.77.32s.605-.106.772-.32c.168-.213.25-.554.25-1.022v-.948zM122.623 73.356c-.024.017-.052.023-.085.023h-.71c-.03 0-.06-.015-.08-.043-.02-.027-.03-.06-.03-.098v-3.27c0-.045-.01-.07-.022-.07-.005 0-.017.016-.035.044l-.674 1.342c-.023.038-.055.066-.095.087-.038.022-.083.032-.13.032h-.708c-.048 0-.09-.01-.13-.032-.04-.02-.072-.05-.095-.087l-.683-1.342c-.018-.028-.03-.043-.035-.043-.014 0-.022.025-.022.07v3.27c0 .036-.01.07-.03.097-.02.028-.048.042-.082.042h-.708c-.033 0-.063-.008-.085-.024-.024-.017-.034-.043-.034-.08V68.44c0-.08.024-.145.078-.2.055-.052.12-.08.2-.08h.576c.057 0 .108.017.155.047s.08.07.104.123l1.06 2.148c.02.034.033.058.044.074.01.016.02.025.034.025.014 0 .025-.01.036-.025.008-.017.022-.04.042-.074l1.06-2.148c.024-.052.06-.093.106-.123s.1-.046.153-.046h.575c.08 0 .147.028.2.08.055.056.08.12.08.2v4.835c.002.038-.01.065-.032.08zM130.217 73.338c-.027.028-.06.042-.098.042h-.696c-.038 0-.07-.014-.1-.042-.027-.027-.04-.06-.04-.098v-2.15h-1.997v2.15c0 .037-.014.07-.043.098-.027.028-.06.042-.097.042h-.696c-.037 0-.07-.014-.098-.042-.027-.027-.042-.06-.042-.098v-4.945c0-.038.015-.07.042-.096.028-.025.06-.04.1-.04h.695c.036 0 .07.015.097.04.03.025.043.057.043.095v1.938h1.996v-1.938c0-.038.014-.07.04-.096.03-.025.063-.04.1-.04h.696c.036 0 .07.015.097.04.03.025.042.057.042.095v4.945c0 .037-.014.07-.043.098zM134.808 73.296c-.02.02-.057.033-.108.042-.057.01-.12.02-.187.033-.067.012-.15.022-.253.03-.102.01-.223.02-.365.025-.144.008-.32.012-.53.012-.23 0-.443-.02-.64-.058-.198-.038-.37-.11-.516-.214-.148-.106-.264-.252-.35-.44-.083-.187-.126-.43-.126-.73v-2.45c0-.3.043-.544.127-.73.086-.188.2-.334.35-.44.145-.105.316-.177.515-.214.196-.038.41-.056.64-.056.21 0 .387.002.53.01.143.007.264.017.365.024.102.01.186.02.253.03l.187.034c.052.01.087.022.108.042.02.018.032.053.032.105v.45c0 .037-.014.07-.042.097-.028.028-.062.043-.1.043h-1.433c-.206 0-.35.042-.432.127-.082.084-.123.243-.123.48v.757h1.903c.038 0 .07.014.1.043.027.027.042.06.042.098v.505c0 .038-.015.07-.043.1-.028.026-.06.04-.1.04h-1.902V72c0 .233.04.393.123.478.082.084.226.127.432.127h1.434c.036 0 .07.014.098.042.028.027.042.062.042.1v.447c0 .05-.012.085-.032.104zM139.26 68.766c.036-.005.074-.008.112-.008h.133c.272 0 .53.026.776.078.245.052.46.14.646.267.186.126.334.294.443.503.11.207.165.467.165.775v.064c0 .31-.056.57-.166.78-.11.21-.26.38-.444.51-.187.128-.4.22-.645.273-.245.054-.503.08-.775.08h-.245v1.152c0 .036-.014.07-.04.097-.025.028-.058.042-.095.042h-.703c-.036 0-.07-.015-.098-.043-.028-.027-.042-.06-.042-.098v-1.153h-.245c-.272 0-.53-.026-.773-.08-.244-.055-.46-.146-.643-.274-.184-.13-.332-.3-.44-.51-.11-.21-.166-.47-.166-.78v-.062c0-.308.055-.567.165-.774.108-.21.257-.377.44-.503.185-.126.4-.215.644-.267.242-.052.5-.078.773-.078h.133c.037 0 .075.003.112.008v-.47c0-.04.014-.07.042-.097.027-.025.062-.04.098-.04h.696c.038 0 .07.015.1.04.027.025.042.057.042.095v.47zm-.978 2.52v-1.713c-.052-.005-.098-.008-.14-.008h-.104c-.35 0-.612.062-.786.187-.176.125-.263.334-.263.63v.062c0 .28.08.49.24.63.16.144.43.213.808.213h.244zm1.223-1.72h-.113c-.042 0-.086.002-.132.007v1.714h.245c.38 0 .65-.07.81-.212.163-.14.244-.35.244-.63v-.064c0-.294-.09-.503-.265-.628-.176-.125-.44-.187-.79-.187zM145.842 68.94c-.028.024-.062.036-.1.036h-1.228v4.264c0 .037-.015.07-.042.098-.028.028-.06.042-.1.042h-.694c-.037 0-.07-.014-.098-.042-.028-.027-.043-.06-.043-.098v-4.264h-1.23c-.035 0-.07-.012-.098-.036-.028-.022-.042-.053-.042-.09v-.556c0-.038.014-.07.04-.096.03-.024.064-.038.1-.038h3.436c.037 0 .07.014.1.038.027.026.04.058.04.096v.555c0 .038-.014.068-.042.09zM147.008 68.295c0-.09.044-.134.133-.134h.605c.09 0 .134.045.134.135v3.695c0 .04.01.063.034.063s.04-.02.056-.056l1.638-3.61c.04-.094.084-.156.13-.183.045-.028.103-.043.18-.043h.76c.077 0 .145.028.198.08.054.056.08.12.08.2v4.8c0 .037-.014.07-.042.098-.028.028-.06.042-.097.042h-.6c-.036 0-.067-.014-.094-.042-.025-.027-.04-.06-.04-.098v-3.533c0-.038-.01-.057-.033-.057s-.045.02-.063.057l-1.56 3.42c-.056.128-.12.202-.193.222-.073.02-.15.03-.235.03h-.71c-.08 0-.147-.026-.2-.08-.054-.054-.08-.12-.08-.2v-4.805z"/></svg>