<!DOCTYPE svg PUBLIC "-//W3C//DTD SVG 1.1//EN" "http://www.w3.org/Graphics/SVG/1.1/DTD/svg11.dtd" [
	<!ENTITY ns_flows "http://ns.adobe.com/Flows/1.0/">
]><svg xmlns="http://www.w3.org/2000/svg" width="161" height="63" viewBox="-1.217 -0.765 161 63" enable-background="new -1.217 -0.765 161 63"><path fill="#173585" d="M35.243 0C50.923 0 65.02 13.665 65.02 27.763c0 14.097-14.817 33.372-34.668 33.372C10.502 61.135 0 41.428 0 26.61S19.42 0 35.243 0z"/><path fill="#9ECAED" d="M34.89 3.95c13.654 0 25.93 11.898 25.93 24.175 0 12.275-12.903 29.06-30.19 29.06-17.286 0-26.43-17.16-26.43-30.062C4.2 14.22 21.11 3.95 34.89 3.95z"/><path fill="#66B3E6" d="M34.588 7.318c11.925 0 22.647 10.394 22.647 21.115S45.965 53.815 30.87 53.815c-15.1 0-23.085-14.988-23.085-26.257s14.77-20.24 26.803-20.24z"/><path fill="#29ABE2" d="M34.197 11.696c9.68 0 18.382 8.437 18.382 17.14 0 8.702-9.147 20.603-21.403 20.603-12.255 0-18.738-12.167-18.738-21.314s11.988-16.43 21.757-16.43z"/><path fill="#E2ECC0" d="M33.898 15.038c7.965 0 15.127 6.942 15.127 14.104 0 7.16-7.527 16.953-17.612 16.953-10.084 0-15.42-10.01-15.42-17.538 0-7.526 9.866-13.52 17.905-13.52z"/><path fill="#F18200" d="M33.447 20.083c5.378 0 10.213 4.687 10.213 9.522S38.578 41.05 31.77 41.05c-6.81 0-10.412-6.76-10.412-11.84s6.662-9.127 12.09-9.127z"/><path fill="#FDD17B" d="M33.256 22.218c4.283 0 8.133 3.732 8.133 7.583s-4.048 9.117-9.47 9.117c-5.422 0-8.29-5.383-8.29-9.43 0-4.048 5.304-7.27 9.626-7.27z"/><path fill="#fff" d="M32.952 25.618c2.54 0 4.82 2.213 4.82 4.495s-2.398 5.403-5.612 5.403-4.914-3.19-4.914-5.59c0-2.398 3.144-4.308 5.706-4.308z"/><text transform="matrix(.81 0 0 1 74.231 26.327)" fill="#fff" font-family="'Geometria-Medium'" font-size="20.537">ВРЕМЯ</text><text transform="matrix(.877 0 0 1 74.228 54.232)" fill="#fff" font-family="'Geometria-Medium'" font-size="6.218">АРКТИЧЕСКАЯ ПРОГРАММА</text><text transform="matrix(.877 0 0 1 74.228 61.136)" fill="#fff" font-family="'Geometria-Medium'" font-size="6.218">ГАЗПРОМ НЕФТИ</text><text transform="matrix(.81 0 0 1 74.231 44.019)" fill="#fff" font-family="'Geometria-Medium'" font-size="20.537">АРКТИКИ</text></svg>