<!DOCTYPE svg PUBLIC "-//W3C//DTD SVG 1.1//EN" "http://www.w3.org/Graphics/SVG/1.1/DTD/svg11.dtd" [
	<!ENTITY ns_flows "http://ns.adobe.com/Flows/1.0/">
]><svg xmlns="http://www.w3.org/2000/svg" width="122" height="48" viewBox="-0.405 -0.474 122 48" enable-background="new -0.405 -0.474 122 48"><path fill="#1D3176" d="M25.025.094C10.985 1.476-2.097 11.75.28 24.07c2.37 12.266 10.016 22.664 23.602 22.664 13.587 0 24.01-14.664 25.6-22.664C51.92 11.816 38.543-1.235 25.026.094zm19.193 22.344c-1.242 6.83-10.727 20.77-21.337 20.77S7.434 33.628 5.585 23.16C3.727 12.647 13.054 4.8 24.02 3.62 34.58 2.484 46.123 11.98 44.22 22.438z"/><path fill="#62B9E9" d="M24.02 3.62C13.056 4.8 3.728 12.647 5.584 23.16c1.85 10.47 6.686 20.048 17.297 20.048 10.61 0 20.095-13.94 21.337-20.77C46.122 11.98 34.577 2.484 24.02 3.62zm13.64 25.467c-2.924 4.772-13.32 12.097-20.64 9.142-7.318-2.957-7.755-11.482-5.863-19.844 1.9-8.397 11.602-12.124 19.52-9.954 7.626 2.088 11.46 13.346 6.982 20.655z"/><path fill="#D7E6BC" d="M30.678 8.432c-7.92-2.17-17.622 1.557-19.52 9.954C9.264 26.746 9.7 35.273 17.02 38.23c7.32 2.954 17.715-4.37 20.64-9.143 4.476-7.31.643-18.567-6.982-20.655zm4.326 20.754c-2.23 3.7-10.8 8.212-16.5 5.91-5.7-2.302-6.06-8.893-4.608-15.352 1.458-6.487 9.55-10.182 15.63-8.193 6.236 2.042 9.103 11.623 5.478 17.636z"/><path fill="#EF8300" d="M29.525 11.55c-6.078-1.987-14.17 1.707-15.63 8.194-1.45 6.46-1.09 13.05 4.61 15.353 5.7 2.3 14.268-2.21 16.5-5.91 3.624-6.014.757-15.595-5.48-17.636zm1.042 17.577c-2.994 3.864-9.012 3.256-12.688.05-3.54-3.086-2.9-9.94 1.2-12.563 2.677-1.71 10.42-2.937 13.59.52 3.172 3.454.877 8.145-2.103 11.993z"/><path fill="#FDD690" d="M19.08 16.614c-4.1 2.622-4.738 9.477-1.2 12.562 3.675 3.207 9.692 3.815 12.687-.05 2.98-3.847 5.275-8.538 2.104-11.993-3.17-3.455-10.913-2.23-13.59-.52zm10.028 10.68c-2.65 3.21-6.932 2.92-9.554.748-2.525-2.09-1.86-7.115 1.56-9.46 2.23-1.528 7.205-2.48 9.414-.076 2.207 2.404 1.22 5.59-1.42 8.787z"/><path fill="#fff" d="M21.113 18.583c-3.42 2.344-4.084 7.368-1.56 9.46 2.623 2.172 6.903 2.46 9.555-.75 2.64-3.196 3.627-6.383 1.42-8.787-2.21-2.405-7.182-1.452-9.415.077zM65.197 16.77c0 .576-.103 1.058-.31 1.45-.204.393-.494.71-.87.954-.38.245-.834.422-1.37.53-.534.11-1.136.166-1.804.166-.583 0-1.085-.015-1.51-.043-.425-.028-.748-.067-.967-.115-.24-.047-.413-.12-.523-.222-.11-.102-.165-.285-.165-.553v-9.04c0-.257.05-.44.15-.552.1-.11.266-.184.495-.222.19-.03.497-.06.917-.094.42-.034.912-.05 1.475-.05.65 0 1.244.05 1.783.15.54.1 1.005.264 1.396.494.39.23.693.527.91.896.214.37.32.826.32 1.37v.288c0 .48-.107.91-.326 1.3s-.547.675-.983.867c.437.19.776.467 1.02.824.24.358.362.81.362 1.355v.246zm-1.994-4.762c0-.497-.185-.85-.553-1.06-.368-.212-1.012-.317-1.93-.317-.17 0-.352.004-.538.01-.187.003-.356.01-.51.02v2.912h1.822c.336 0 .612-.036.833-.107.22-.07.395-.17.523-.294.13-.124.22-.27.273-.437.052-.167.078-.342.078-.524v-.202zm.058 4.55c0-.202-.028-.394-.086-.574-.058-.182-.156-.343-.294-.48-.14-.14-.32-.252-.546-.338-.226-.087-.504-.13-.84-.13h-1.82v3.157c.17 0 .372.005.6.015s.42.014.574.014c.46 0 .842-.028 1.148-.085.307-.058.553-.148.738-.273.187-.124.32-.28.402-.467.08-.186.123-.403.123-.652v-.188zM74.666 12.425c0 .63-.11 1.162-.338 1.592-.225.43-.527.777-.906 1.04-.38.264-.817.45-1.315.56-.5.11-1.026.166-1.583.166-.19 0-.413-.008-.662-.02-.248-.016-.455-.027-.618-.037v3.745c0 .078-.026.145-.08.202-.05.057-.116.085-.192.085h-1.435c-.077 0-.144-.028-.2-.085-.06-.058-.088-.124-.088-.2V9.597c0-.144.04-.246.122-.308.082-.063.193-.104.338-.123.374-.057.805-.103 1.293-.136.49-.032.997-.05 1.525-.05.555 0 1.082.053 1.58.16.498.103.938.286 1.315.543.38.26.68.6.905 1.026.227.425.338.953.338 1.585v.13zm-1.995-.13c0-.602-.18-1.03-.536-1.283-.36-.254-.897-.38-1.614-.38-.077 0-.175.002-.294.007-.12.003-.242.01-.366.014l-.352.014c-.11.006-.198.013-.266.02v3.416c.058 0 .146.002.266.007l.373.016.374.014c.12.006.208.008.266.008.774 0 1.327-.144 1.657-.43s.494-.72.494-1.292v-.13zM82.408 19.585c-.044.037-.117.066-.223.086-.115.02-.242.04-.38.065-.14.023-.312.044-.517.064-.206.018-.455.034-.746.05-.292.014-.654.02-1.084.02-.47 0-.904-.038-1.308-.115-.403-.075-.753-.223-1.053-.438-.298-.216-.534-.514-.708-.896-.175-.383-.26-.88-.26-1.492V11.92c0-.612.085-1.108.26-1.49s.41-.683.707-.898c.3-.215.65-.36 1.053-.438.403-.076.84-.114 1.308-.114.43 0 .792.007 1.084.02.29.015.54.03.746.05.205.02.377.042.517.065.138.024.265.046.38.064.105.02.18.048.223.086.043.038.064.11.064.215v.92c0 .076-.03.143-.087.2s-.124.086-.2.086h-2.928c-.42 0-.715.086-.883.26-.167.17-.25.496-.25.975v1.55h3.89c.075 0 .142.03.2.086.057.058.085.125.085.2v1.034c0 .077-.03.144-.087.2s-.124.086-.2.086h-3.89v1.852c0 .48.084.803.25.976.17.173.463.26.884.26h2.928c.076 0 .143.027.2.084.058.06.087.126.087.202v.918c0 .107-.02.18-.064.217zM93.69 19.706c-.047.034-.104.05-.17.05h-1.45c-.066 0-.12-.028-.164-.085-.043-.057-.065-.123-.065-.2v-6.672c0-.096-.013-.144-.042-.144-.01 0-.034.028-.07.087l-1.378 2.74c-.05.076-.113.137-.194.18s-.17.064-.266.064h-1.448c-.096 0-.185-.02-.266-.064-.082-.043-.146-.104-.193-.18l-1.393-2.74c-.04-.058-.063-.086-.072-.086-.027 0-.043.048-.043.144v6.672c0 .077-.02.144-.064.2-.042.058-.097.086-.163.086h-1.45c-.066 0-.124-.016-.17-.05-.05-.033-.073-.088-.073-.165V9.67c0-.162.054-.3.164-.41.11-.11.246-.164.41-.164h1.176c.115 0 .22.03.315.093.095.062.166.145.215.25L89 13.83c.038.067.066.118.086.15s.043.052.072.052.053-.018.07-.05c.022-.034.05-.085.088-.15l2.166-4.392c.048-.105.12-.188.215-.252.096-.062.2-.093.316-.093h1.176c.162 0 .298.055.41.165.108.11.163.247.163.408v9.872c0 .078-.024.133-.072.166zM95.298 19.585c0-.05.01-.087.03-.115l2.25-4.19c-.597-.23-1.07-.583-1.423-1.062s-.527-1.1-.527-1.865v-.128c0-.613.112-1.128.338-1.543.225-.416.525-.75.903-.998.377-.248.814-.428 1.312-.537.496-.11 1.023-.165 1.578-.165.525 0 1.033.017 1.52.05.487.033.92.08 1.292.136.143.02.255.06.336.123.082.063.123.165.123.31v9.87c0 .078-.028.145-.085.202-.06.057-.125.085-.2.085h-1.437c-.076 0-.14-.028-.193-.085-.053-.058-.08-.124-.08-.2v-3.89c-.16.01-.365.02-.613.036s-.467.02-.658.02h-.2l-2.057 3.833c-.038.078-.077.145-.114.202-.04.057-.096.085-.173.085h-1.75c-.114 0-.172-.058-.172-.172zm2.325-7.232c0 .63.172 1.066.515 1.307.343.238.886.357 1.628.357.06 0 .146-.002.266-.006l.37-.015.373-.014c.118-.004.206-.007.264-.007v-3.228c-.068-.01-.155-.017-.265-.02l-.35-.016-.365-.016c-.12-.005-.217-.007-.294-.007-.714 0-1.248.12-1.605.36-.358.236-.536.63-.536 1.176v.13zM65.8 33.158c0 .077-.025.137-.072.18-.05.044-.11.064-.187.064h-1.52c-.066 0-.125-.023-.173-.07-.048-.05-.08-.107-.1-.174l-.66-2.727h-3.3l-.66 2.728c-.02.066-.053.124-.1.173-.05.05-.106.072-.174.072h-1.52c-.078 0-.14-.02-.187-.065-.048-.042-.07-.102-.07-.18 0-.008 0-.018.005-.027s.008-.024.008-.043l2.353-8.996c.087-.334.212-.597.374-.788.163-.19.337-.338.524-.438.187-.1.377-.166.573-.194.196-.028.372-.043.525-.043s.327.015.524.043c.194.028.386.094.572.194.187.1.36.246.523.438s.287.454.373.79l2.353 8.995c0 .02.003.033.01.043.007.01.01.02.01.028zm-4.133-8.623c-.02-.086-.043-.146-.072-.18-.027-.032-.08-.05-.157-.05s-.13.018-.157.05c-.028.034-.052.094-.07.18l-1.034 4.26H62.7l-1.033-4.26zM74.666 26.07c0 .632-.11 1.162-.338 1.593-.225.43-.526.777-.906 1.04-.38.264-.817.45-1.315.56-.5.11-1.026.165-1.583.165-.19 0-.412-.007-.662-.02-.248-.016-.455-.026-.617-.037v3.746c0 .077-.027.144-.08.2-.052.058-.117.087-.193.087h-1.435c-.077 0-.144-.03-.2-.086-.06-.058-.088-.124-.088-.2v-9.872c0-.144.04-.246.122-.31s.193-.102.338-.12c.374-.06.805-.104 1.293-.138.49-.032.998-.05 1.525-.05.555 0 1.082.054 1.58.158.5.105.938.287 1.315.545.38.26.68.6.907 1.025.225.426.336.955.336 1.586v.13zm-1.995-.13c0-.602-.18-1.03-.536-1.283-.36-.254-.897-.38-1.614-.38-.077 0-.175.002-.294.007l-.366.015c-.124.003-.24.01-.352.014s-.198.012-.265.02v3.416c.057 0 .145.003.265.008l.373.015.374.014c.12.005.208.008.266.008.774 0 1.327-.144 1.657-.43.33-.29.494-.72.494-1.293v-.13zM83.878 33.273c0 .086-.072.13-.216.13H81.74c-.152 0-.262-.054-.33-.158l-3.285-4.893v4.763c0 .077-.028.144-.086.2-.06.058-.126.087-.202.087h-1.42c-.077 0-.144-.03-.2-.086-.06-.058-.087-.124-.087-.2V23.028c0-.077.03-.143.087-.195.058-.052.124-.08.2-.08h1.42c.077 0 .144.028.202.08.057.053.085.118.085.194v4.56l3.516-4.72c.038-.047.085-.078.137-.093.053-.014.117-.02.194-.02h1.637c.18 0 .272.057.272.172 0 .065-.035.143-.103.228l-3.672 4.75 3.7 5.193c.048.078.073.135.073.173zM92.142 24.334c-.057.048-.125.072-.2.072h-2.51v8.71c0 .076-.03.143-.087.2-.06.057-.125.086-.2.086h-1.422c-.077 0-.144-.03-.2-.086-.058-.058-.087-.124-.087-.2v-8.71h-2.51c-.078 0-.146-.024-.202-.072-.057-.047-.086-.11-.086-.187v-1.133c0-.076.03-.142.086-.194.057-.052.124-.08.2-.08h7.017c.077 0 .146.028.202.08.057.053.086.118.086.194v1.133c0 .078-.03.14-.086.187zM93.562 23.015c0-.182.092-.273.273-.273h1.234c.18 0 .27.092.27.273v7.547c0 .086.023.13.072.13.047 0 .086-.04.115-.115L98.87 23.2c.086-.19.175-.313.265-.372.092-.057.213-.086.367-.086h1.55c.16 0 .298.056.408.166.11.11.165.246.165.408v9.8c0 .077-.03.144-.086.2-.06.058-.126.087-.202.087h-1.22c-.077 0-.142-.03-.193-.086-.053-.058-.08-.124-.08-.2v-7.218c0-.077-.022-.116-.07-.116-.048 0-.09.04-.13.115l-3.185 6.986c-.116.26-.247.41-.395.45-.148.046-.31.066-.48.066h-1.45c-.162 0-.3-.056-.408-.164-.11-.11-.166-.247-.166-.41v-9.813zM111.526 33.273c0 .086-.07.13-.215.13h-1.922c-.152 0-.263-.054-.33-.158l-3.285-4.893v4.763c0 .077-.03.144-.086.2-.058.058-.125.087-.2.087h-1.42c-.078 0-.146-.03-.202-.086-.057-.058-.086-.124-.086-.2V23.028c0-.077.028-.143.085-.195.057-.052.124-.08.2-.08h1.42c.077 0 .145.028.202.08.057.053.086.118.086.194v4.56l3.516-4.72c.036-.047.082-.078.134-.093.053-.014.117-.02.194-.02h1.636c.182 0 .272.057.272.172 0 .065-.034.143-.1.228l-3.673 4.75 3.7 5.193c.048.078.073.135.073.173zM112.717 23.015c0-.182.09-.273.272-.273h1.233c.182 0 .272.092.272.273v7.547c0 .086.023.13.07.13.05 0 .087-.04.116-.115l3.345-7.376c.086-.19.174-.313.265-.372.09-.057.213-.086.366-.086h1.55c.162 0 .298.056.41.166.108.11.163.246.163.408v9.8c0 .077-.03.144-.087.2-.057.058-.125.087-.2.087h-1.22c-.078 0-.142-.03-.194-.086-.054-.058-.08-.124-.08-.2v-7.218c0-.077-.023-.116-.072-.116-.047 0-.09.04-.13.115l-3.185 6.986c-.114.26-.246.41-.395.45-.147.046-.308.066-.48.066h-1.45c-.16 0-.298-.056-.407-.164-.11-.11-.164-.247-.164-.41v-9.813zM59.387 41.347c0 .023-.008.042-.022.056-.015.014-.034.02-.06.02h-.473c-.02 0-.038-.007-.054-.022-.014-.013-.024-.03-.03-.052l-.207-.85h-1.027l-.206.85c-.006.02-.017.04-.032.053-.014.017-.032.023-.054.023h-.473c-.023 0-.042-.006-.057-.02-.016-.014-.023-.032-.023-.056 0-.004 0-.006.002-.01v-.013l.734-2.804c.027-.104.065-.186.117-.246.05-.06.105-.104.164-.137.058-.03.118-.05.18-.06.06-.01.114-.014.162-.014s.103.005.164.014c.062.01.12.03.178.06.06.032.113.078.164.137.05.06.09.142.116.246l.733 2.804c0 .006.002.01.003.014.004.003.004.005.004.01zM58.1 38.66c-.006-.027-.013-.046-.022-.058-.01-.01-.025-.015-.05-.015-.023 0-.04.005-.05.015-.008.012-.015.03-.02.057l-.323 1.327h.787L58.1 38.66zM62.387 39.138c0 .196-.035.362-.105.496s-.164.243-.282.325c-.117.08-.255.14-.41.173s-.32.052-.493.052c-.06 0-.128-.003-.206-.007-.077-.005-.142-.01-.19-.012v1.166c0 .024-.01.045-.026.063s-.037.026-.06.026h-.448c-.024 0-.045-.007-.063-.025s-.026-.04-.026-.063v-3.075c0-.045.012-.076.037-.096.026-.02.06-.03.105-.037.116-.018.25-.032.403-.043.152-.01.31-.016.474-.016.173 0 .338.017.492.05.155.032.292.088.41.17.117.08.212.187.28.318.07.133.106.298.106.495v.04zm-.622-.04c0-.188-.056-.32-.166-.4-.114-.08-.28-.12-.505-.12l-.092.004c-.037 0-.074.004-.113.005l-.11.004-.082.008v1.064c.017 0 .045 0 .082.002l.116.004.117.005.082.003c.242 0 .414-.045.516-.134.105-.09.155-.225.155-.403v-.042zM65.557 41.383c0 .025-.022.04-.067.04h-.6c-.047 0-.082-.017-.102-.05l-1.024-1.524v1.482c0 .024-.01.045-.026.063s-.04.026-.063.026h-.443c-.023 0-.045-.007-.063-.025s-.028-.04-.028-.063V38.19c0-.024.01-.045.027-.06.017-.018.038-.025.062-.025h.443c.023 0 .045.008.063.024.018.015.026.035.026.06v1.42l1.096-1.47c.012-.015.026-.024.042-.03.017-.003.037-.005.06-.005h.51c.058 0 .086.018.086.053 0 .02-.01.044-.03.07l-1.146 1.48 1.153 1.62c.015.025.022.042.022.055zM68.4 38.597c-.018.015-.038.022-.063.022h-.78v2.712c0 .024-.01.045-.028.063s-.04.026-.064.026h-.443c-.023 0-.043-.007-.062-.025s-.025-.04-.025-.063V38.62h-.783c-.023 0-.045-.01-.063-.023s-.028-.034-.028-.06v-.352c0-.024.01-.044.027-.06.017-.017.038-.026.062-.026h2.186c.024 0 .045.01.063.024.02.017.028.036.028.06v.354c0 .025-.01.044-.028.06zM69.142 38.186c0-.057.03-.086.086-.086h.385c.057 0 .084.03.084.086v2.352c0 .026.008.04.022.04s.025-.012.035-.035l1.042-2.3c.026-.06.054-.098.083-.114.027-.02.066-.03.113-.03h.482c.05 0 .094.02.13.054.032.034.05.076.05.127v3.054c0 .024-.01.045-.027.063s-.04.026-.063.026h-.38c-.024 0-.044-.008-.06-.026-.018-.02-.025-.04-.025-.063v-2.248c0-.023-.008-.035-.022-.035s-.028.013-.04.036l-.992 2.177c-.035.08-.077.128-.123.142-.047.014-.096.02-.15.02h-.45c-.052 0-.095-.017-.128-.052-.035-.033-.053-.076-.053-.127v-3.06zM72.576 38.13c.02-.02.04-.03.063-.03h.442c.023 0 .045.01.063.03.018.02.027.04.027.064v1.024c0 .098.01.178.032.238.022.062.058.11.106.143.047.034.105.058.176.07s.152.022.25.022c.117 0 .242-.016.374-.045.13-.03.24-.062.33-.1v-1.353c0-.023.01-.046.028-.064.018-.02.037-.03.063-.03h.442c.024 0 .045.01.063.03.02.02.027.04.027.064v3.138c0 .024-.01.045-.027.063-.018.02-.038.026-.063.026h-.44c-.026 0-.046-.007-.064-.025-.02-.02-.027-.04-.027-.063v-1.287c-.092.04-.214.076-.366.112-.15.035-.318.054-.5.054-.186 0-.343-.024-.473-.075s-.233-.12-.315-.21c-.082-.09-.142-.195-.18-.315-.037-.12-.055-.25-.055-.387v-1.028c0-.024.01-.047.026-.065zM77.912 41.37c-.013.01-.035.02-.068.025l-.12.02c-.042.008-.096.016-.16.02-.063.007-.142.012-.23.018-.093.004-.204.007-.34.007-.145 0-.28-.014-.406-.037s-.235-.07-.33-.136c-.09-.066-.165-.16-.22-.28-.054-.118-.08-.273-.08-.464v-1.56c0-.192.026-.347.08-.466.055-.12.13-.213.22-.28.095-.066.204-.112.33-.137.126-.022.26-.035.407-.035.135 0 .246.003.338.007.09.005.168.01.232.016.063.006.117.013.16.02l.12.022c.032.006.055.015.067.026.014.012.02.034.02.066v.286c0 .024-.008.045-.025.063-.018.02-.04.027-.063.027h-.912c-.132 0-.224.026-.275.08-.053.054-.078.155-.078.305v.482h1.21c.024 0 .045.01.063.027.018.02.026.04.026.064v.322c0 .023-.01.045-.027.063-.02.017-.04.025-.063.025h-1.21v.577c0 .148.024.25.077.304.052.053.144.08.275.08h.912c.023 0 .045.01.063.027.018.018.026.038.026.063v.286c0 .032-.008.054-.02.067zM80.75 41.353c-.02.014-.043.024-.072.034-.018.007-.048.012-.092.02-.043.008-.096.016-.158.022-.063.007-.133.014-.21.02-.077.006-.16.01-.246.01-.134 0-.276-.02-.425-.06-.148-.038-.285-.108-.408-.21-.124-.105-.226-.244-.307-.42-.08-.176-.122-.402-.122-.68v-.657c0-.28.042-.51.123-.687.08-.177.183-.315.306-.417.122-.104.26-.172.407-.21.148-.037.29-.056.425-.056.086 0 .17.004.245.01.078.006.148.013.21.02.064.007.116.016.16.024.043.01.073.016.09.018.03.01.055.02.073.034.018.013.026.036.026.07v.298c0 .027-.007.05-.02.068-.014.017-.036.026-.07.026h-.01l-.14-.012c-.055-.004-.115-.008-.176-.01l-.193-.01s-.13-.005-.188-.005c-.097 0-.185.014-.263.043-.08.027-.146.073-.203.138s-.102.15-.135.258c-.032.107-.05.24-.05.397v.658c0 .155.018.286.05.394.032.107.077.193.134.26.057.065.124.112.203.142.078.027.166.04.262.04.058 0 .12 0 .187-.003l.193-.01c.06 0 .12-.005.176-.01l.14-.012h.01c.034 0 .057.01.07.027.013.018.02.04.02.067v.3c0 .034-.01.058-.026.07zM84 41.383c0 .025-.022.04-.067.04h-.6c-.046 0-.08-.017-.103-.05l-1.023-1.524v1.482c0 .024-.01.045-.027.063s-.04.026-.063.026h-.442c-.024 0-.045-.007-.063-.025-.02-.02-.027-.04-.027-.063V38.19c0-.024.01-.045.027-.06.018-.018.038-.025.063-.025h.442c.023 0 .045.008.063.024.018.015.027.035.027.06v1.42l1.096-1.47c.012-.015.025-.024.042-.03.017-.003.036-.005.062-.005h.51c.056 0 .084.018.084.053 0 .02-.01.044-.03.07l-1.145 1.48 1.153 1.62c.014.025.022.042.022.055zM87.196 41.347c0 .023-.007.042-.022.056-.015.014-.033.02-.06.02h-.472c-.02 0-.04-.007-.055-.022-.016-.013-.025-.03-.03-.052l-.206-.85h-1.028l-.205.85c-.006.02-.017.04-.03.053-.016.017-.034.023-.054.023h-.475c-.024 0-.043-.006-.06-.02-.013-.014-.02-.032-.02-.056 0-.004 0-.006.002-.01.002-.003.002-.007.002-.013l.733-2.804c.026-.104.065-.186.116-.246.052-.06.106-.104.164-.137.058-.03.118-.05.18-.06s.114-.014.163-.014c.047 0 .102.005.162.014.06.01.12.03.18.06.057.032.11.078.162.137.05.06.09.142.116.246l.732 2.804c0 .006 0 .01.003.014.002.003.003.005.003.01zM85.91 38.66c-.008-.027-.015-.046-.023-.058-.01-.01-.026-.015-.05-.015-.024 0-.04.005-.05.015-.008.012-.016.03-.02.057l-.323 1.327h.787l-.32-1.328zM87.724 41.37c0-.017.002-.028.008-.038l.702-1.305c-.187-.07-.333-.182-.444-.33-.11-.15-.164-.343-.164-.582v-.04c0-.19.035-.35.105-.48.07-.13.165-.232.282-.31.118-.08.255-.134.41-.17.154-.033.318-.05.492-.05.163 0 .32.004.473.015s.287.025.402.043c.044.006.08.02.104.038s.04.052.04.097v3.075c0 .024-.01.045-.028.063s-.04.026-.063.026h-.446c-.024 0-.045-.007-.06-.025-.02-.02-.026-.04-.026-.063v-1.21l-.19.01c-.076.005-.145.008-.205.008h-.062l-.642 1.192c-.01.024-.022.045-.034.063s-.03.026-.055.026h-.544c-.034.002-.052-.016-.052-.05zm.724-2.255c0 .197.053.333.16.407.106.074.276.11.507.11.02 0 .046 0 .084-.002l.114-.003.115-.005c.036-.002.063-.002.08-.002v-1.006c-.02-.004-.046-.006-.08-.007l-.11-.006c-.04 0-.076 0-.113-.003l-.092-.002c-.223 0-.39.037-.5.112-.11.074-.167.196-.167.366v.042zM94.97 41.332c0 .024-.008.045-.025.063-.02.02-.04.026-.063.026h-.442c-.023 0-.045-.007-.063-.025s-.027-.04-.027-.063V38.87c0-.087-.014-.145-.04-.176-.026-.03-.077-.044-.147-.044h-.895c-.072 0-.12.015-.147.044-.025.03-.04.09-.04.175v2.462c0 .024-.01.045-.026.063s-.038.026-.063.026h-.44c-.024 0-.045-.007-.063-.025-.02-.02-.027-.04-.027-.063V38.87c0-.27.063-.464.188-.586.125-.123.332-.185.62-.185h.896c.29 0 .496.06.62.184.126.122.19.317.19.585v2.462zM98.22 39.138c0 .196-.034.362-.105.496-.07.134-.163.243-.28.325-.12.08-.257.14-.41.173-.157.034-.32.052-.494.052-.06 0-.128-.003-.205-.007-.078-.005-.143-.01-.193-.012v1.166c0 .024-.008.045-.024.063s-.036.026-.06.026H96c-.025 0-.045-.007-.063-.025-.018-.02-.026-.04-.026-.063v-3.075c0-.045.014-.076.04-.096s.06-.03.104-.037c.116-.018.25-.032.403-.043s.31-.016.475-.016c.173 0 .336.017.492.05.156.032.292.088.41.17.118.08.212.187.28.318.072.133.107.298.107.495v.04zm-.62-.04c0-.188-.056-.32-.168-.4-.11-.08-.28-.12-.503-.12-.024 0-.056.002-.093.004-.037 0-.075.004-.114.005l-.11.004-.082.008v1.064c.02 0 .046 0 .083.002l.117.004.115.005.084.003c.24 0 .413-.045.515-.134.104-.09.154-.225.154-.403v-.042zM101.43 40.063c0 .247-.03.46-.095.635-.064.177-.152.32-.266.432s-.25.194-.403.247c-.154.055-.324.082-.508.082-.187 0-.356-.028-.51-.083-.155-.053-.288-.136-.402-.247-.113-.11-.202-.255-.266-.432-.063-.176-.097-.388-.097-.635v-.603c0-.244.033-.455.097-.633.063-.177.152-.322.266-.434.114-.112.247-.194.4-.25.155-.053.325-.08.51-.08s.355.027.51.08c.153.056.288.138.4.25.114.11.202.257.267.434.063.178.096.39.096.633v.603zm-.62-.603c0-.298-.054-.516-.16-.65-.105-.136-.27-.203-.49-.203-.222 0-.386.067-.492.203-.106.135-.158.353-.158.65v.604c0 .298.052.515.158.65s.27.203.492.203c.22 0 .385-.067.49-.203.106-.136.16-.353.16-.65v-.604zM102.907 41.332c0 .024-.01.045-.028.063-.02.02-.038.026-.064.026h-.44c-.024 0-.046-.007-.064-.025s-.026-.04-.026-.063v-2.35c0-.192.026-.347.08-.466s.128-.213.22-.28c.094-.066.203-.112.33-.137.125-.023.26-.036.406-.036.135 0 .247.003.338.007.092.006.168.01.232.017s.118.013.16.02l.12.022c.032.005.056.014.067.025.014.012.02.034.02.066v.287c0 .024-.01.045-.027.063-.018.018-.04.026-.063.026h-.912c-.13 0-.223.026-.274.08-.053.054-.078.155-.078.305v2.352zM107.44 39.138c0 .196-.035.362-.105.496s-.164.243-.282.325c-.118.08-.256.14-.41.173-.156.034-.32.052-.493.052-.06 0-.128-.003-.206-.007-.078-.005-.143-.01-.193-.012v1.166c0 .024-.007.045-.022.063-.018.02-.037.026-.06.026h-.448c-.025 0-.045-.007-.063-.025-.02-.02-.027-.04-.027-.063v-3.075c0-.045.013-.076.04-.096.022-.02.06-.03.103-.037.117-.018.252-.032.404-.043s.31-.016.475-.016c.173 0 .336.017.492.05.156.032.292.088.41.17.118.08.212.187.282.318.07.133.105.298.105.495v.04zm-.622-.04c0-.188-.055-.32-.167-.4-.11-.08-.28-.12-.502-.12l-.092.004c-.038 0-.076.004-.114.005l-.11.004-.082.008v1.064c.018 0 .045 0 .083.002l.116.004.114.005.084.003c.242 0 .414-.045.516-.134.104-.09.154-.225.154-.403v-.042zM110.413 41.347c0 .023-.007.042-.022.056-.013.014-.032.02-.058.02h-.473c-.022 0-.04-.007-.056-.022-.014-.013-.025-.03-.03-.052l-.206-.85h-1.03l-.204.85c-.006.02-.017.04-.03.053-.016.017-.034.023-.054.023h-.475c-.023 0-.043-.006-.06-.02-.013-.014-.02-.032-.02-.056 0-.004 0-.006.002-.01.002-.003.002-.007.002-.013l.732-2.804c.027-.104.065-.186.116-.246.05-.06.105-.104.163-.137.06-.03.12-.05.18-.06.062-.01.116-.014.164-.014.047 0 .102.005.163.014.06.01.12.03.18.06.058.032.11.078.162.137.05.06.088.142.115.246l.733 2.804c0 .006 0 .01.003.014.002.003.003.005.003.01zm-1.288-2.688c-.007-.027-.014-.046-.022-.058-.01-.01-.025-.015-.05-.015-.023 0-.04.005-.05.015-.008.012-.016.03-.02.057l-.323 1.327h.787l-.322-1.328zM113.95 41.407c-.015.01-.033.015-.054.015h-.452c-.02 0-.038-.008-.052-.026-.013-.02-.02-.04-.02-.063v-2.077c0-.03-.004-.045-.014-.045-.003 0-.01.01-.02.027l-.43.854c-.017.025-.036.044-.062.057-.025.015-.053.02-.083.02h-.45c-.03 0-.06-.005-.084-.02-.026-.013-.046-.03-.062-.056l-.434-.853c-.012-.018-.02-.026-.02-.026-.01 0-.015.015-.015.046v2.077c0 .024-.008.045-.022.063s-.03.026-.052.026h-.45c-.022 0-.04-.005-.054-.015-.016-.01-.023-.028-.023-.052V38.28c0-.052.017-.094.052-.128.033-.035.076-.053.127-.053h.365c.036 0 .068.01.1.03.028.018.05.045.065.077l.676 1.368c.012.02.02.037.027.047.006.01.012.015.02.015.01 0 .018-.004.022-.015.007-.01.016-.026.027-.047l.676-1.368c.015-.032.037-.06.066-.078.03-.02.063-.03.098-.03h.367c.05 0 .093.017.126.052.035.034.053.076.053.127v3.075c.002.024-.006.04-.02.052zM117.76 41.407c-.017.01-.034.015-.056.015h-.45c-.022 0-.04-.008-.052-.026-.015-.02-.02-.04-.02-.063v-2.077c0-.03-.005-.045-.014-.045-.003 0-.01.01-.022.027l-.43.854c-.015.025-.035.044-.06.057-.025.015-.054.02-.083.02h-.45c-.03 0-.06-.005-.084-.02-.026-.013-.047-.03-.06-.056l-.436-.853c-.013-.018-.02-.026-.022-.026-.01 0-.014.015-.014.046v2.077c0 .024-.006.045-.02.063s-.03.026-.052.026h-.452c-.02 0-.038-.005-.053-.015-.015-.01-.02-.028-.02-.052V38.28c0-.052.016-.094.05-.128.034-.035.077-.053.128-.053h.366c.036 0 .07.01.1.03.028.018.05.045.065.077l.675 1.368c.012.02.02.037.027.047.006.01.014.015.02.015.01 0 .02-.004.024-.015.006-.01.015-.026.025-.047l.677-1.368c.016-.032.037-.06.067-.078.03-.02.062-.03.1-.03h.365c.05 0 .092.017.127.052.033.034.05.076.05.127v3.075c.004.024-.004.04-.018.052zM121.188 41.347c0 .023-.008.042-.022.056-.016.014-.035.02-.06.02h-.473c-.02 0-.04-.007-.054-.022-.017-.013-.026-.03-.032-.052l-.207-.85h-1.026l-.206.85c-.005.02-.017.04-.03.053-.016.017-.033.023-.055.023h-.473c-.025 0-.043-.006-.06-.02s-.02-.032-.02-.056c0-.004 0-.006.002-.01l.002-.013.732-2.804c.027-.104.066-.186.116-.246.052-.06.106-.104.163-.137.06-.03.12-.05.18-.06s.115-.014.164-.014c.046 0 .1.005.16.014.062.01.122.03.18.06.058.032.112.078.163.137.05.06.09.142.115.246l.734 2.804c0 .006 0 .01.002.014.003.003.004.005.004.01zM119.9 38.66c-.006-.027-.014-.046-.023-.058-.008-.01-.025-.015-.047-.015-.025 0-.04.005-.05.015-.01.012-.017.03-.022.057l-.322 1.327h.787l-.323-1.328zM57.54 46.61c0 .022-.008.044-.026.062-.02.018-.04.026-.063.026h-.44c-.024 0-.045-.01-.063-.026s-.027-.04-.027-.063v-2.353c0-.19.027-.346.08-.465.055-.12.13-.212.222-.28.093-.066.203-.112.328-.136.125-.024.262-.035.408-.035.134 0 .246.002.337.008.09.003.168.01.232.015.063.006.118.013.16.02.044.008.083.015.12.02.033.006.055.016.07.027s.02.034.02.067v.286c0 .023-.01.045-.028.062-.02.02-.04.027-.064.027h-.912c-.13 0-.223.026-.275.08-.053.055-.08.155-.08.305v2.352zM61.78 46.622c0 .024-.01.044-.022.057-.016.013-.035.02-.06.02h-.474c-.02 0-.038-.008-.053-.022-.015-.016-.024-.034-.03-.055l-.206-.848h-1.028l-.205.848c-.005.02-.016.04-.03.055-.015.015-.033.02-.054.02h-.474c-.023 0-.042-.005-.058-.02-.015-.012-.022-.03-.022-.056 0-.003 0-.006.002-.008.002-.003.002-.008.002-.014l.733-2.804c.026-.104.065-.186.116-.245.05-.06.105-.104.163-.136.058-.032.117-.052.178-.06.06-.01.115-.014.163-.014s.104.003.164.013c.062.01.12.028.178.06.06.032.113.078.164.138s.09.143.117.246l.732 2.804c0 .006 0 .01.002.014.002.002.002.005.002.008zm-1.29-2.685c-.005-.028-.012-.046-.02-.057-.01-.01-.026-.016-.05-.016-.023 0-.04.005-.05.016-.008.01-.015.028-.02.057l-.323 1.327h.787l-.323-1.327zM64.378 46.2c-.057.12-.137.22-.236.3-.1.078-.22.138-.355.177-.137.038-.285.058-.442.058-.167 0-.32-.01-.458-.03-.14-.02-.273-.05-.4-.082-.023-.006-.044-.016-.06-.028-.02-.013-.026-.032-.026-.056v-.278c0-.023.01-.044.024-.058.014-.016.033-.022.058-.022h.01c.178.018.34.032.48.045.14.012.266.018.373.018.182 0 .31-.04.387-.12.075-.078.114-.196.114-.354v-.093c0-.06-.006-.116-.017-.17-.01-.054-.032-.1-.063-.144-.032-.04-.074-.075-.128-.1-.055-.025-.123-.038-.207-.038h-.79c-.058 0-.086-.028-.086-.085v-.28c0-.06.028-.087.085-.087h.79c.085 0 .153-.012.207-.036.053-.023.095-.056.127-.096.03-.04.052-.085.062-.138.01-.053.016-.107.016-.168v-.07c0-.057-.007-.11-.02-.163-.014-.052-.04-.098-.076-.136-.037-.04-.09-.07-.155-.095-.065-.024-.15-.036-.25-.036-.08 0-.15 0-.213.004l-.186.012c-.063.004-.13.012-.2.02-.072.01-.158.02-.256.027h-.01c-.023 0-.043-.008-.057-.022-.016-.015-.023-.033-.023-.058v-.277c0-.023.008-.043.025-.057.017-.013.037-.022.06-.028.128-.033.263-.06.4-.08s.292-.03.46-.03c.16 0 .31.016.445.047.138.034.256.086.355.16.1.07.18.167.235.283.056.117.085.26.085.43v.07c0 .16-.033.292-.1.4s-.162.196-.285.262c.125.068.22.164.287.283.064.12.098.253.098.396v.094c0 .166-.028.31-.087.43zM67.873 46.61c0 .022-.01.044-.026.062-.02.018-.038.026-.063.026h-.44c-.025 0-.046-.01-.064-.026s-.027-.04-.027-.063v-2.465c0-.087-.014-.145-.04-.174-.026-.028-.076-.044-.147-.044h-.895c-.07 0-.12.016-.146.045s-.04.088-.04.175v2.464c0 .022-.01.044-.027.062s-.038.026-.063.026h-.443c-.022 0-.042-.01-.06-.026s-.027-.04-.027-.063v-2.465c0-.268.062-.463.188-.586.126-.123.333-.184.622-.184h.895c.29 0 .496.06.62.183.126.122.19.317.19.585v2.464zM71.124 44.415c0 .195-.035.36-.105.494-.072.135-.166.242-.283.324-.12.082-.256.14-.41.174-.155.034-.32.052-.494.052-.06 0-.127-.002-.205-.007l-.193-.01v1.166c0 .022-.008.044-.023.062-.018.018-.037.026-.062.026h-.446c-.024 0-.045-.01-.063-.026s-.025-.04-.025-.063v-3.077c0-.045.013-.077.037-.096.025-.02.06-.032.105-.038.117-.02.25-.033.404-.043.152-.01.312-.016.476-.016.173 0 .337.018.492.05.156.033.292.09.41.17.117.08.21.187.282.32.07.13.105.296.105.492v.043zm-.622-.042c0-.188-.056-.32-.168-.4s-.28-.118-.503-.118c-.023 0-.054 0-.092.003l-.114.004-.11.006c-.032 0-.06.003-.08.006v1.064c.017 0 .045 0 .08.002.038 0 .078.003.118.005.04 0 .078.003.115.004l.084.002c.24 0 .414-.045.517-.135.104-.09.155-.224.155-.4v-.044zM74.333 45.34c0 .247-.032.46-.096.635-.064.176-.152.32-.266.432-.112.11-.247.194-.4.248-.155.053-.325.08-.51.08-.184 0-.353-.027-.51-.08-.153-.054-.288-.137-.4-.248-.112-.112-.2-.256-.266-.432-.063-.176-.096-.388-.096-.635v-.604c0-.243.032-.454.096-.632s.153-.322.266-.435c.112-.112.247-.195.4-.25.156-.052.326-.078.51-.078.185 0 .355.026.51.08.153.053.288.136.4.247.114.11.202.256.267.434.063.178.096.39.096.632v.604zm-.62-.605c0-.297-.055-.515-.16-.65-.107-.135-.27-.203-.49-.203-.224 0-.387.068-.493.203-.105.136-.158.354-.158.65v.604c0 .297.053.514.158.65.106.135.27.203.492.203.22 0 .384-.068.49-.204s.16-.354.16-.65v-.605zM78.035 46.684c-.015.01-.032.015-.053.015h-.452c-.02 0-.038-.01-.052-.027s-.02-.04-.02-.063v-2.08c0-.03-.004-.045-.014-.045-.003 0-.01.01-.02.027l-.43.854c-.017.024-.036.042-.062.056-.025.015-.053.02-.082.02h-.452c-.03 0-.058-.005-.083-.02-.025-.014-.046-.03-.06-.056l-.435-.854c-.012-.02-.02-.027-.022-.027-.008 0-.013.015-.013.045v2.08c0 .022-.008.044-.02.062s-.03.026-.053.026h-.45c-.022 0-.04-.005-.055-.015-.015-.01-.022-.028-.022-.052v-3.075c0-.05.018-.093.05-.128.036-.033.08-.05.13-.05h.365c.036 0 .07.01.1.028.03.02.05.045.066.078l.676 1.367.026.048c.007.01.014.016.022.016.008 0 .016-.006.022-.016l.026-.048.676-1.367c.015-.033.037-.06.066-.078s.063-.03.098-.03h.367c.05 0 .094.02.128.052.034.035.05.077.05.128v3.076c.004.025-.003.043-.018.054zM82.868 46.672c-.017.018-.038.026-.062.026h-.443c-.023 0-.045-.01-.063-.026s-.027-.04-.027-.063v-1.37h-1.27v1.37c0 .022-.01.044-.027.062-.018.018-.038.026-.062.026h-.442c-.025 0-.045-.01-.063-.026-.02-.018-.028-.04-.028-.063V43.46c0-.024.01-.044.027-.06.017-.017.036-.025.062-.025h.442c.023 0 .044.01.062.024.02.018.027.037.027.062v1.233h1.27v-1.233c0-.024.01-.044.027-.06.018-.017.04-.025.063-.025h.443c.023 0 .045.01.062.024.02.018.027.037.027.062v3.147c0 .023-.01.044-.027.062zM85.79 46.645c-.014.013-.036.02-.07.027l-.118.02c-.043.008-.096.015-.16.02s-.142.013-.232.017c-.092.004-.203.006-.338.006-.146 0-.28-.012-.407-.036-.126-.023-.235-.07-.327-.136-.094-.067-.168-.16-.22-.28-.056-.12-.083-.273-.083-.464v-1.56c0-.192.027-.347.082-.466.053-.12.127-.212.22-.28.093-.066.202-.112.328-.136.126-.024.262-.035.407-.035.135 0 .246 0 .338.007.09.003.168.01.232.015.064.006.117.013.16.02l.12.02c.032.006.055.016.068.027s.02.034.02.067v.285c0 .023-.008.045-.026.062-.018.02-.04.027-.063.027h-.91c-.132 0-.224.026-.275.08-.052.055-.08.155-.08.305v.48h1.213c.024 0 .045.01.063.028.02.018.027.04.027.063v.322c0 .024-.01.045-.026.063-.018.018-.038.027-.062.027h-1.212v.577c0 .147.027.248.08.303.05.054.143.08.273.08h.91c.024 0 .046.01.064.027.02.018.027.04.027.063v.285c0 .033-.007.055-.02.067zM88.623 43.762c.023-.003.047-.005.072-.005h.084c.173 0 .337.017.493.05.155.033.29.09.41.17.117.08.213.187.282.32.07.13.104.296.104.493v.04c0 .196-.035.362-.105.496-.07.134-.165.242-.282.324-.12.082-.255.14-.41.175-.156.034-.32.05-.494.05h-.157v.734c0 .022-.01.044-.025.062-.016.018-.037.026-.06.026h-.448c-.023 0-.045-.01-.063-.026s-.025-.04-.025-.063v-.734h-.156c-.174 0-.338-.017-.492-.05-.156-.036-.293-.094-.41-.176-.117-.082-.21-.19-.28-.324-.07-.134-.106-.3-.106-.496v-.04c0-.197.036-.362.105-.494.07-.133.164-.24.282-.32.116-.08.253-.136.41-.17.153-.032.317-.05.49-.05h.085s.048.003.072.006v-.3c0-.024.008-.044.025-.06.018-.017.04-.025.063-.025h.443c.024 0 .045.01.063.024.018.018.027.037.027.062v.3zM88 45.366v-1.09c-.032-.004-.062-.006-.09-.006h-.065c-.223 0-.39.04-.5.12-.11.078-.167.212-.167.4v.04c0 .178.052.312.153.4.104.09.274.135.515.135H88zm.78-1.095h-.073s-.055.003-.084.006v1.09h.156c.24 0 .412-.043.515-.134.104-.09.154-.223.154-.4v-.04c0-.19-.057-.322-.17-.4-.11-.082-.28-.12-.5-.12zM92.812 43.873c-.02.015-.04.022-.063.022h-.783v2.714c0 .022-.01.044-.027.062s-.038.026-.063.026h-.442c-.023 0-.044-.01-.062-.026-.02-.018-.027-.04-.027-.063v-2.715h-.783c-.023 0-.045-.008-.063-.022s-.025-.033-.025-.058v-.354c0-.023.008-.043.025-.06.018-.016.04-.024.063-.024h2.187c.024 0 .045.01.063.024.018.017.025.036.025.06v.355c0 .025-.008.043-.026.058zM93.554 43.462c0-.057.027-.085.084-.085h.385c.057 0 .085.028.085.085v2.352c0 .026.007.04.022.04s.026-.012.035-.035l1.042-2.3c.026-.06.054-.1.083-.115.028-.02.066-.027.113-.027h.484c.05 0 .092.018.127.05.033.036.05.078.05.13v3.053c0 .024-.01.046-.026.064s-.038.024-.06.024h-.382c-.023 0-.044-.01-.06-.026-.017-.018-.025-.04-.025-.063v-2.25c0-.024-.007-.035-.02-.035-.016 0-.03.01-.04.035l-.994 2.178c-.034.08-.075.128-.122.14-.047.015-.096.02-.15.02h-.45c-.05 0-.094-.016-.128-.05s-.05-.077-.05-.128v-3.058z"/></svg>