<!DOCTYPE svg PUBLIC "-//W3C//DTD SVG 1.1//EN" "http://www.w3.org/Graphics/SVG/1.1/DTD/svg11.dtd" [
	<!ENTITY ns_flows "http://ns.adobe.com/Flows/1.0/">
]><svg xmlns="http://www.w3.org/2000/svg" width="36" height="34" viewBox="16.694 104.245 36 34" enable-background="new 16.694 104.245 36 34"><path fill="#fff" d="M51.963 110.557c-1.266.564-2.63.943-4.062 1.115 1.46-.873 2.582-2.26 3.11-3.91-1.364.81-2.877 1.4-4.488 1.715-1.29-1.375-3.127-2.232-5.16-2.232-3.906 0-7.072 3.166-7.072 7.07 0 .55.064 1.094.186 1.61-5.877-.298-11.088-3.11-14.574-7.388-.607 1.047-.955 2.262-.955 3.553 0 2.455 1.244 4.62 3.145 5.885-1.158-.035-2.25-.354-3.205-.883v.09c0 3.426 2.438 6.28 5.672 6.932-.595.158-1.22.244-1.86.244-.457 0-.9-.04-1.332-.123.9 2.81 3.512 4.85 6.604 4.906-2.42 1.896-5.467 3.028-8.78 3.028-.57 0-1.136-.033-1.687-.1 3.127 2.004 6.844 3.176 10.838 3.176 13.006 0 20.117-10.77 20.117-20.113 0-.304-.01-.61-.02-.91 1.38-.997 2.576-2.24 3.523-3.663z"/></svg>