<!DOCTYPE svg PUBLIC "-//W3C//DTD SVG 1.1//EN" "http://www.w3.org/Graphics/SVG/1.1/DTD/svg11.dtd" [
	<!ENTITY ns_flows "http://ns.adobe.com/Flows/1.0/">
]><svg xmlns="http://www.w3.org/2000/svg" width="36" height="34" viewBox="16.694 104.245 36 34" enable-background="new 16.694 104.245 36 34"><path fill-rule="evenodd" clip-rule="evenodd" fill="#fff" d="M34.28 131.41h2.148s.648-.07.98-.427c.306-.328.295-.944.295-.944s-.04-2.883 1.296-3.31c1.318-.417 3.012 2.788 4.807 4.02 1.357.933 2.39.73 2.39.73l4.8-.068s2.51-.154 1.32-2.13c-.098-.16-.693-1.46-3.57-4.128-3.01-2.795-2.605-2.342 1.02-7.173 2.21-2.942 3.092-4.74 2.814-5.51-.26-.732-1.886-.538-1.886-.538l-5.403.034s-.4-.055-.697.123c-.29.173-.477.58-.477.58s-.856 2.276-1.996 4.214c-2.407 4.086-3.37 4.302-3.763 4.048-.915-.592-.687-2.376-.687-3.644 0-3.96.6-5.61-1.17-6.04-.587-.14-1.02-.234-2.522-.25-1.93-.02-3.56.007-4.484.46-.615.3-1.09.97-.8 1.01.356.047 1.166.22 1.595.802.553.753.533 2.445.533 2.445s.318 4.662-.743 5.24c-.73.397-1.728-.413-3.873-4.12-1.1-1.898-1.93-3.998-1.93-3.998s-.16-.393-.445-.603c-.347-.254-.83-.335-.83-.335l-5.136.032s-.77.02-1.054.357c-.252.297-.02.914-.02.914s4.02 9.406 8.572 14.147c4.176 4.346 8.916 4.06 8.916 4.06z"/></svg>