<!DOCTYPE svg PUBLIC "-//W3C//DTD SVG 1.1//EN" "http://www.w3.org/Graphics/SVG/1.1/DTD/svg11.dtd" [
	<!ENTITY ns_flows "http://ns.adobe.com/Flows/1.0/">
]><svg xmlns="http://www.w3.org/2000/svg" width="52" height="42" viewBox="8.325 6.862 52 42" enable-background="new 8.325 6.862 52 42"><path fill="#fff" d="M53.172 22.24c2.02-.01 3.954-.428 5.623-1.117-.26-.652-.68-1.435-1.002-1.967-.904.21-1.874.333-2.867.34-5.65.023-10.248-3.5-10.27-7.874-.003-.91.25-1.794.61-2.61-1.2-.45-1.995-.663-2.418-.78-1.073 1.397-1.73 3.035-1.724 4.783.026 5.125 5.42 9.26 12.048 9.224zm-27.228-3.266c-.024-4.78 2.808-9.053 7.256-11.858-13.702.486-24.625 9.58-24.625 20.724 0 11.454 11.545 20.743 25.78 20.743 13.743 0 24.977-8.65 25.736-19.558-3.567 3.06-8.725 5-14.468 5.028-10.83.05-19.64-6.7-19.678-15.08zm3.226-1.266c.035 7.688 8.12 13.88 18.058 13.835 5.066-.022 9.64-1.67 12.896-4.298-.028-.524-.07-1.217-.173-1.877-2.866 2.06-6.7 3.33-10.918 3.347-8.932.045-16.196-5.523-16.23-12.435-.017-3.528 1.935-6.722 4.96-9.013-.754-.08-1.602-.128-2.373-.154-3.83 2.572-6.242 6.367-6.22 10.595zm21.186 8.94c3.546-.02 6.815-1.017 9.36-2.637-.103-.53-.255-1.184-.496-1.76-2.038 1.03-4.5 1.65-7.12 1.66-7.22.038-13.096-4.464-13.127-10.052-.01-2.225.976-4.292 2.545-5.97-.705-.165-1.49-.297-2.215-.413-2.398 2.055-3.857 4.777-3.84 7.76.03 6.34 6.697 11.45 14.893 11.412zm5.407-8.465c.463-.002.915-.03 1.36-.083-2.175-3.318-6.384-6.73-10.558-8.565-.116.46-.228.943-.226 1.43.018 4.01 4.24 7.244 9.423 7.218z"/></svg>