<!DOCTYPE svg PUBLIC "-//W3C//DTD SVG 1.1//EN" "http://www.w3.org/Graphics/SVG/1.1/DTD/svg11.dtd" [
	<!ENTITY ns_flows "http://ns.adobe.com/Flows/1.0/">
]><svg xmlns="http://www.w3.org/2000/svg" width="135" height="17" viewBox="-0.248 -0.188 135 17" enable-background="new -0.248 -0.188 135 17"><path fill="#274E7C" d="M80.703 10.02c0 2.918-2.002 4.42-4.744 4.507V11.87c.89-.173 1.413-.804 1.413-1.85V6.714c0-1.088-.72-1.916-1.894-1.916-1.198 0-1.895.827-1.895 1.916v3.308c0 1.046.522 1.677 1.415 1.85v2.657c-2.656 0-4.745-1.59-4.745-4.506V6.823c0-3.178 2.48-4.637 5.224-4.637 2.72 0 5.223 1.437 5.223 4.637v3.2zm28.602-7.835c-2.72 0-5.115 1.458-5.115 4.637v3.2c0 3.09 2.395 4.526 5.115 4.526 2.916 0 4.94-1.458 4.94-4.287v-.24h-3.2v.24c0 .958-.544 1.677-1.74 1.677-1.197 0-1.785-.85-1.785-1.916V6.714c0-1.088.588-1.916 1.785-1.916 1.196 0 1.74.718 1.74 1.676v.24h3.2v-.24c0-2.873-2.133-4.288-4.94-4.288zM58.98 14.31h1.61c.958 0 1.59-.654 1.59-1.677v-3.07h3.57v4.746h3.198V2.424H65.75V6.91h-3.57V2.424h-3.2V14.31zm26.23-9.382h1.653c.696 0 1.175.348 1.175 1.067 0 .718-.48 1.066-1.175 1.066h-.718v2.482h.936c.828 0 1.307.37 1.307 1.088 0 .806-.48 1.176-1.306 1.176h-1v2.503h1.87c2.418 0 3.79-1.502 3.79-3.33 0-1.242-.633-2.31-1.917-2.722v-.044c1.023-.435 1.546-1.393 1.546-2.7 0-1.784-1.395-3.09-3.876-3.09h-5.507v11.884h1.61c.98 0 1.61-.762 1.61-1.676V4.928zm35.696.065h3.09V2.425h-9.402v2.568h3.09v9.316h1.547c.914 0 1.677-.763 1.677-1.677v-7.64zm-17.892 5.028c0 2.918-2.003 4.42-4.745 4.507V11.87c.892-.173 1.414-.804 1.414-1.85V6.714c0-1.088-.72-1.916-1.894-1.916-1.197 0-1.894.827-1.894 1.916v3.308c0 1.046.522 1.677 1.415 1.85v2.657c-2.654 0-4.745-1.59-4.745-4.506V6.823c0-3.178 2.48-4.637 5.225-4.637 2.72 0 5.224 1.437 5.224 4.637v3.2zm28.492-1.958h.108v6.247h3.222V2.424h-2.742l-3.918 6.247h-.11V2.425h-3.22V14.31h1.066c1.284 0 2.046-.566 2.568-1.416l3.026-4.832zM17.975 6.097c.815-.004 1.595-.172 2.267-.45-.104-.263-.274-.578-.403-.793-.365.084-.756.134-1.157.137-2.276.01-4.13-1.41-4.14-3.172 0-.367.1-.723.247-1.053-.483-.18-.805-.267-.975-.314-.433.564-.698 1.225-.695 1.93.01 2.065 2.184 3.73 4.855 3.717zM7 4.78C6.99 2.855 8.132 1.133 9.925 0 4.402.198 0 3.864 0 8.355c0 4.616 4.652 8.36 10.39 8.36 5.54 0 10.068-3.486 10.374-7.882-1.438 1.234-3.517 2.015-5.83 2.027-4.367.018-7.918-2.7-7.934-6.08zm1.3-.51c.015 3.1 3.274 5.596 7.28 5.578 2.04-.01 3.885-.673 5.197-1.732-.012-.21-.028-.49-.07-.757-1.155.83-2.7 1.34-4.4 1.348-3.6.018-6.528-2.227-6.542-5.012-.007-1.422.78-2.71 2-3.633C11.46.03 11.118.01 10.807 0 9.264 1.037 8.292 2.567 8.3 4.27zm8.54 3.604c1.43-.008 2.747-.41 3.772-1.063-.04-.213-.103-.477-.2-.71-.82.418-1.813.667-2.87.67-2.91.016-5.277-1.8-5.29-4.05-.004-.898.394-1.73 1.025-2.407-.284-.066-.6-.12-.893-.167-.967.828-1.555 1.926-1.547 3.128.013 2.555 2.7 4.615 6.003 4.6zm2.18-3.412c.187 0 .368-.012.548-.034-.876-1.337-2.572-2.713-4.255-3.453-.047.186-.092.38-.09.577.006 1.618 1.707 2.92 3.797 2.91zm9.118.466h1.785c.98 0 1.415.588 1.415 1.415s-.436 1.437-1.415 1.437h-.827v2.482h1.545c2.374 0 4.028-1.415 4.028-3.918 0-2.373-1.545-3.918-4.027-3.918h-5.7V14.31h1.61c.892 0 1.588-.762 1.588-1.676V4.928zM42.33 8.062h.108v6.247h3.222V2.424h-2.742l-3.92 6.247h-.107V2.425h-3.22V14.31h1.065c1.284 0 2.046-.566 2.568-1.416l3.027-4.832zm9.838-2.067h-.087L50.036 12.7c-.283.956-.893 1.61-1.938 1.61h-1.61v-.24l4.157-11.645h3.33L58.13 14.07v.24h-3.547l-.718-2.373h-2.612l.652-2.504h1.22l-.957-3.438z"/></svg>