<!DOCTYPE svg PUBLIC "-//W3C//DTD SVG 1.1//EN" "http://www.w3.org/Graphics/SVG/1.1/DTD/svg11.dtd" [
	<!ENTITY ns_flows "http://ns.adobe.com/Flows/1.0/">
]><svg xmlns="http://www.w3.org/2000/svg" width="57" height="60" viewBox="0 -7.71 57 60" enable-background="new 0 -7.71 57 60"><path fill="#0071BC" d="M56.547 4.86c-2.08.822-4.317 1.38-6.662 1.63 2.394-1.284 4.234-3.312 5.1-5.734-2.243 1.186-4.725 2.052-7.367 2.515C45.5 1.26 42.486 0 39.148 0c-6.405 0-11.6 4.638-11.6 10.36 0 .81.102 1.603.3 2.363-9.64-.43-18.19-4.558-23.91-10.827-1 1.53-1.572 3.31-1.572 5.21 0 3.593 2.05 6.764 5.16 8.624-1.9-.055-3.69-.52-5.254-1.296v.13c0 5.02 4 9.207 9.305 10.16-.974.235-1.998.362-3.056.362-.746 0-1.474-.063-2.182-.184 1.477 4.115 5.76 7.113 10.837 7.195-3.97 2.776-8.974 4.434-14.408 4.434-.937 0-1.86-.048-2.768-.144 5.132 2.94 11.23 4.657 17.783 4.657 21.34 0 33.008-15.79 33.008-29.48 0-.45-.01-.898-.033-1.343 2.268-1.458 4.235-3.285 5.79-5.36z"/></svg>