<!DOCTYPE svg PUBLIC "-//W3C//DTD SVG 1.1//EN" "http://www.w3.org/Graphics/SVG/1.1/DTD/svg11.dtd" [
	<!ENTITY ns_flows "http://ns.adobe.com/Flows/1.0/">
]><svg xmlns="http://www.w3.org/2000/svg" width="57" height="60" viewBox="-0.337 -13.946 57 60" enable-background="new -0.337 -13.946 57 60"><path fill-rule="evenodd" clip-rule="evenodd" fill="#0071BC" d="M27.43 28.446h3.35s1.012-.102 1.53-.596c.476-.457.46-1.316.46-1.316s-.067-4.013 2.02-4.604c2.06-.584 4.7 3.878 7.5 5.595 2.117 1.3 3.726 1.015 3.726 1.015l7.486-.094s3.917-.214 2.06-2.966c-.152-.225-1.082-2.032-5.567-5.753-4.696-3.892-4.066-3.26 1.59-9.993 3.443-4.1 4.82-6.6 4.39-7.675-.41-1.022-2.944-.75-2.944-.75l-8.428.044s-.626-.075-1.09.173c-.45.24-.743.806-.743.806s-1.335 3.176-3.115 5.872c-3.753 5.692-5.253 5.995-5.87 5.64-1.426-.823-1.068-3.31-1.068-5.074 0-5.516.936-7.817-1.825-8.41-.917-.2-1.59-.33-3.935-.354-3.008-.023-5.553.01-6.994.64-.96.42-1.697 1.354-1.246 1.41.556.066 1.82.302 2.487 1.115.865 1.054.834 3.41.834 3.41s.497 6.494-1.16 7.296c-1.136.554-2.694-.572-6.04-5.737-1.715-2.647-3.01-5.57-3.01-5.57s-.25-.548-.693-.84c-.542-.354-1.296-.47-1.296-.47l-8.012.05s-1.203.03-1.645.496c-.393.416-.03 1.276-.03 1.276s6.27 13.102 13.37 19.705c6.514 6.057 13.906 5.66 13.906 5.66z"/></svg>