<!DOCTYPE svg PUBLIC "-//W3C//DTD SVG 1.1//EN" "http://www.w3.org/Graphics/SVG/1.1/DTD/svg11.dtd" [
	<!ENTITY ns_flows "http://ns.adobe.com/Flows/1.0/">
]><svg xmlns="http://www.w3.org/2000/svg" width="40" height="40" viewBox="5 6 40 40" enable-background="new 5 6 40 40"><path fill="#0071BC" d="M45 42c0 2.21-1.79 4-4 4H9c-2.21 0-4-1.79-4-4V10c0-2.21 1.79-4 4-4h32c2.21 0 4 1.79 4 4v32z"/><path fill="#fff" d="M40 18.455c-1.027.44-2.133.74-3.293.88 1.182-.683 2.086-1.757 2.507-3.033-1.106.63-2.333 1.093-3.64 1.345-1.054-1.053-2.55-1.707-4.202-1.697-3.17.02-5.73 2.476-5.71 5.488.002.427.056.843.156 1.242-4.774-.2-9.02-2.345-11.872-5.627-.49.808-.767 1.747-.76 2.746.01 1.89 1.034 3.554 2.58 4.523-.94-.023-1.828-.263-2.604-.667v.068c.016 2.643 2.01 4.835 4.64 5.32-.482.127-.99.196-1.513.2-.37.002-.73-.03-1.082-.092.743 2.162 2.874 3.727 5.388 3.756-1.957 1.474-4.428 2.36-7.12 2.377-.462.002-.92-.02-1.37-.068 2.552 1.53 5.576 2.417 8.82 2.397C31.487 37.55 37.215 29.207 37.17 22c0-.237-.008-.472-.02-.706 1.117-.774 2.084-1.74 2.848-2.84z"/></svg>