<!DOCTYPE svg PUBLIC "-//W3C//DTD SVG 1.1//EN" "http://www.w3.org/Graphics/SVG/1.1/DTD/svg11.dtd" [
	<!ENTITY ns_flows "http://ns.adobe.com/Flows/1.0/">
]><svg xmlns="http://www.w3.org/2000/svg" width="40" height="40" viewBox="5 6 40 40" enable-background="new 5 6 40 40"><path fill="#0071BC" d="M45 42c0 2.21-1.79 4-4 4H9c-2.21 0-4-1.79-4-4V10c0-2.21 1.79-4 4-4h32c2.21 0 4 1.79 4 4v32z"/><path fill-rule="evenodd" clip-rule="evenodd" fill="#fff" d="M24.992 34.188h1.66s.5-.053.756-.314c.235-.24.23-.692.23-.692s-.034-2.113 1-2.425c1.018-.307 2.325 2.043 3.712 2.946 1.048.684 1.844.534 1.844.534l3.707-.05s1.94-.113 1.02-1.56c-.075-.12-.535-1.07-2.756-3.028-2.323-2.05-2.013-1.718.787-5.26 1.706-2.16 2.388-3.476 2.174-4.04-.202-.538-1.456-.396-1.456-.396l-4.173.024s-.31-.04-.54.09c-.224.128-.367.426-.367.426s-.66 1.67-1.542 3.09c-1.857 2.995-2.6 3.154-2.904 2.968-.707-.434-.53-1.74-.53-2.67 0-2.905.464-4.115-.903-4.43-.454-.103-.788-.172-1.948-.183-1.49-.016-2.75.003-3.463.335-.476.22-.842.713-.62.74.277.035.9.16 1.232.59.428.55.413 1.792.413 1.792s.245 3.418-.574 3.842c-.562.29-1.333-.304-2.99-3.022-.848-1.392-1.49-2.932-1.49-2.932s-.122-.287-.343-.44c-.268-.188-.64-.246-.64-.246l-3.967.024s-.596.016-.813.262c-.195.22-.016.67-.016.67s3.105 6.897 6.62 10.373c3.222 3.186 6.882 2.978 6.882 2.978z"/></svg>